#N canvas 0 25 1440 785 12;
#N canvas 52 52 450 504 sndchnl 0;
#X obj 124 123 vradio 19 1 0 16 empty empty MIDI\ Channel -20 -10 0 12 #bbbbbb #00ff04 #000000 0;
#X floatatom 124 469 5 0 0 0 - - - 0;
#X obj 124 495 send chnl;
#X obj 124 436 + 1;
#X text 153 121 1;
#X text 152 141 2;
#X text 153 160 3;
#X text 152 180 4;
#X text 153 200 5;
#X text 153 218 6;
#X text 153 236 7;
#X text 153 256 8;
#X text 152 276 9;
#X text 151 296 10;
#X text 151 314 11;
#X text 151 332 12;
#X text 151 350 13;
#X text 151 368 14;
#X text 150 387 15;
#X text 150 406 16;
#X connect 0 0 3 0;
#X connect 1 0 2 0;
#X connect 3 0 1 0;
#X coords 0 -1 1 1 90 400 2 100 100;
#X restore 609 74 pd sndchnl;
#X obj 1034 719 noteout;
#X obj 1104 720 receive chnl;
#X msg 807 548 1;
#X msg 866 547 2;
#X msg 924 548 3;
#X msg 985 548 4;
#X msg 1043 549 5;
#X msg 1100 549 6;
#X msg 1170 548 7;
#X msg 1228 548 8;
#X msg 1285 549 9;
#X obj 1034 685 makenote 2 200;
#X obj 806 460 bng 19 250 50 0 empty empty empty 0 -10 0 12 #fcfcfc #000000 #000000;
#X obj 863 458 bng 19 250 50 0 empty empty empty 0 -10 0 12 #fcfcfc #000000 #000000;
#X obj 921 459 bng 19 250 50 0 empty empty empty 0 -10 0 12 #fcfcfc #000000 #000000;
#X obj 983 459 bng 19 250 50 0 empty empty empty 0 -10 0 12 #fcfcfc #000000 #000000;
#X obj 1041 460 bng 19 250 50 0 empty empty empty 0 -10 0 12 #fcfcfc #000000 #000000;
#X obj 1100 460 bng 19 250 50 0 empty empty empty 0 -10 0 12 #fcfcfc #000000 #000000;
#X obj 1166 461 bng 19 250 50 0 empty empty empty 0 -10 0 12 #fcfcfc #000000 #000000;
#X obj 1228 460 bng 19 250 50 0 empty empty empty 0 -10 0 12 #fcfcfc #000000 #000000;
#X obj 1284 464 bng 19 250 50 0 empty empty empty 0 -10 0 12 #fcfcfc #000000 #000000;
#X floatatom 816 303 5 0 0 0 - - - 0;
#X obj 811 107 tgl 19 0 empty empty empty 0 -10 0 12 #fcfcfc #000000 #000000 0 1;
#X text 768 502 Button AT;
#X text 839 521 Button BT;
#X text 906 503 Button CT;
#X text 946 488 Button A1;
#X text 1017 507 Button B1;
#X text 1083 489 Button C1;
#X text 1131 507 Button A2;
#X text 1201 526 Button B2;
#X text 1267 508 Button C2;
#X floatatom 1037 242 5 0 0 0 - - - 0;
#X obj 1031 46 tgl 19 0 empty empty empty 0 -10 0 12 #fcfcfc #000000 #000000 0 1;
#X obj 813 375 sel 0 1 2 3 4 5 6 7 8, f 72;
#X obj 814 240 random 9;
#X obj 817 165 metro 500;
#X obj 1034 314 sel 0 1 2 3 4 5, f 47;
#X obj 1035 179 random 6;
#X obj 1039 105 metro 300;
#X floatatom 1178 242 5 0 0 0 - - - 0;
#X obj 1172 46 tgl 19 0 empty empty empty 0 -10 0 12 #fcfcfc #000000 #000000 0 1;
#X obj 1176 179 random 6;
#X obj 1180 105 metro 300;
#X floatatom 1331 239 5 0 0 0 - - - 0;
#X obj 1325 43 tgl 19 0 empty empty empty 0 -10 0 12 #fcfcfc #000000 #000000 0 1;
#X obj 1329 176 random 6;
#X obj 1333 102 metro 300;
#N canvas 528 119 912 691 Setup 0;
#X obj 38 121 vradio 20 1 1 12 empty empty Root 0 -10 0 12 #606060 #00ff04 #0f4710 1;
#X floatatom 38 405 5 0 0 0 - - - 0;
#X text 66 120 C;
#X text 66 140 C#/Db;
#X text 66 160 D;
#X text 66 180 D#/Eb;
#X text 66 200 E;
#X text 66 340 B;
#X obj 117 119 vradio 20 1 1 6 empty empty Octave 0 -10 0 12 #606060 #00ff04 #000000 2;
#X text 145 161 3;
#X text 145 181 4;
#X text 146 118 1;
#X text 145 141 2;
#X text 146 200 5;
#X text 146 220 6;
#X floatatom 117 405 5 0 0 0 - - - 0;
#X obj 186 119 vradio 20 1 1 12 empty empty Root 0 -10 0 12 #606060 #00ff04 #000000 3;
#X floatatom 186 403 5 0 0 0 - - - 0;
#X obj 265 120 vradio 20 1 1 6 empty empty Octave 0 -10 0 12 #606060 #00ff04 #000000 1;
#X text 293 162 3;
#X text 293 182 4;
#X text 294 119 1;
#X text 293 142 2;
#X text 294 201 5;
#X text 294 221 6;
#X floatatom 265 403 5 0 0 0 - - - 0;
#X obj 331 120 vradio 20 1 1 12 empty empty Root 0 -10 0 12 #606060 #00ff04 #000000 1;
#X floatatom 331 404 5 0 0 0 - - - 0;
#X obj 409 120 vradio 20 1 1 6 empty empty Octave 0 -10 0 12 #606060 #00ff04 #000000 1;
#X text 437 162 3;
#X text 437 182 4;
#X text 438 119 1;
#X text 437 142 2;
#X text 438 201 5;
#X text 438 221 6;
#X floatatom 409 404 5 0 0 0 - - - 0;
#X obj 475 119 vradio 20 1 1 12 empty empty Root 0 -10 0 12 #606060 #00ff04 #000000 4;
#X floatatom 475 403 5 0 0 0 - - - 0;
#X obj 553 117 vradio 20 1 1 6 empty empty Octave 0 -10 0 12 #606060 #00ff04 #000000 1;
#X text 581 159 3;
#X text 581 179 4;
#X text 582 116 1;
#X text 581 139 2;
#X text 582 198 5;
#X text 582 218 6;
#X floatatom 553 401 5 0 0 0 - - - 0;
#X obj 626 116 vradio 20 1 1 12 empty empty Root 0 -10 0 12 #606060 #00ff04 #000000 2;
#X floatatom 626 400 5 0 0 0 - - - 0;
#X obj 702 114 vradio 20 1 1 6 empty empty Octave 0 -10 0 12 #606060 #00ff04 #000000 0;
#X text 730 156 3;
#X text 730 176 4;
#X text 731 113 1;
#X text 730 136 2;
#X text 731 195 5;
#X text 731 215 6;
#X floatatom 702 401 5 0 0 0 - - - 0;
#X obj 766 115 vradio 20 1 1 12 empty empty Root 0 -10 0 12 #606060 #00ff04 #000000 4;
#X floatatom 767 400 5 0 0 0 - - - 0;
#X obj 846 114 vradio 20 1 1 6 empty empty Octave 0 -10 0 12 #606060 #00ff04 #000000 5;
#X text 874 156 3;
#X text 874 176 4;
#X text 875 113 1;
#X text 874 136 2;
#X text 875 195 5;
#X text 875 215 6;
#X floatatom 846 403 5 0 0 0 - - - 0;
#X listbox 39 492 23 0 0 2 Note\ Group - - 0;
#X text 66 220 F;
#X text 66 240 F#/Gb;
#X text 66 260 G;
#X text 66 280 G#/Ab;
#X text 66 300 A;
#X text 66 320 A#/Bb;
#X text 214 120 C;
#X text 214 140 C#/Db;
#X text 214 160 D;
#X text 214 180 D#/Eb;
#X text 214 200 E;
#X text 214 340 B;
#X text 214 220 F;
#X text 214 240 F#/Gb;
#X text 214 260 G;
#X text 214 280 G#/Ab;
#X text 214 300 A;
#X text 214 320 A#/Bb;
#X text 358 121 C;
#X text 358 141 C#/Db;
#X text 358 161 D;
#X text 358 181 D#/Eb;
#X text 358 201 E;
#X text 358 341 B;
#X text 358 221 F;
#X text 358 241 F#/Gb;
#X text 358 261 G;
#X text 358 281 G#/Ab;
#X text 358 301 A;
#X text 358 321 A#/Bb;
#X text 504 119 C;
#X text 504 139 C#/Db;
#X text 504 159 D;
#X text 504 179 D#/Eb;
#X text 504 199 E;
#X text 504 339 B;
#X text 504 219 F;
#X text 504 239 F#/Gb;
#X text 504 259 G;
#X text 504 279 G#/Ab;
#X text 504 299 A;
#X text 504 319 A#/Bb;
#X text 654 117 C;
#X text 654 137 C#/Db;
#X text 654 157 D;
#X text 654 177 D#/Eb;
#X text 654 197 E;
#X text 654 337 B;
#X text 654 217 F;
#X text 654 237 F#/Gb;
#X text 654 257 G;
#X text 654 277 G#/Ab;
#X text 654 297 A;
#X text 654 317 A#/Bb;
#X text 795 114 C;
#X text 795 134 C#/Db;
#X text 795 154 D;
#X text 795 174 D#/Eb;
#X text 795 194 E;
#X text 795 334 B;
#X text 795 214 F;
#X text 795 234 F#/Gb;
#X text 795 254 G;
#X text 795 274 G#/Ab;
#X text 795 294 A;
#X text 795 314 A#/Bb;
#N canvas 392 140 1116 682 calculateNote 0;
#N canvas 1288 562 450 300 getNote 0;
#X obj 62 25 inlet;
#X obj 117 25 inlet;
#X obj 117 90 * 12;
#X obj 117 160 +;
#X obj 117 205 outlet;
#X obj 117 55 + 3;
#X connect 0 0 3 1;
#X connect 1 0 5 0;
#X connect 2 0 3 0;
#X connect 3 0 4 0;
#X connect 5 0 2 0;
#X restore 16 163 pd getNote;
#X floatatom 16 208 5 0 0 0 - - - 0;
#N canvas 1288 562 450 300 getNote 0;
#X obj 62 25 inlet;
#X obj 117 25 inlet;
#X obj 117 90 * 12;
#X obj 117 160 +;
#X obj 117 205 outlet;
#X obj 117 55 + 3;
#X connect 0 0 3 1;
#X connect 1 0 5 0;
#X connect 2 0 3 0;
#X connect 3 0 4 0;
#X connect 5 0 2 0;
#X restore 164 161 pd getNote;
#X floatatom 164 208 5 0 0 0 - - - 0;
#N canvas 1288 562 450 300 getNote 0;
#X obj 62 25 inlet;
#X obj 117 25 inlet;
#X obj 117 90 * 12;
#X obj 117 160 +;
#X obj 117 205 outlet;
#X obj 117 55 + 3;
#X connect 0 0 3 1;
#X connect 1 0 5 0;
#X connect 2 0 3 0;
#X connect 3 0 4 0;
#X connect 5 0 2 0;
#X restore 309 161 pd getNote;
#X floatatom 309 209 5 0 0 0 - - - 0;
#N canvas 1288 562 450 300 getNote 0;
#X obj 62 25 inlet;
#X obj 117 25 inlet;
#X obj 117 90 * 12;
#X obj 117 160 +;
#X obj 117 205 outlet;
#X obj 117 55 + 3;
#X connect 0 0 3 1;
#X connect 1 0 5 0;
#X connect 2 0 3 0;
#X connect 3 0 4 0;
#X connect 5 0 2 0;
#X restore 453 165 pd getNote;
#X floatatom 453 209 5 0 0 0 - - - 0;
#N canvas 1288 562 450 300 getNote 0;
#X obj 62 25 inlet;
#X obj 117 25 inlet;
#X obj 117 90 * 12;
#X obj 117 160 +;
#X obj 117 205 outlet;
#X obj 117 55 + 3;
#X connect 0 0 3 1;
#X connect 1 0 5 0;
#X connect 2 0 3 0;
#X connect 3 0 4 0;
#X connect 5 0 2 0;
#X restore 604 162 pd getNote;
#X floatatom 604 207 5 0 0 0 - - - 0;
#N canvas 1288 562 450 300 getNote 0;
#X obj 62 25 inlet;
#X obj 117 25 inlet;
#X obj 117 90 * 12;
#X obj 117 160 +;
#X obj 117 205 outlet;
#X obj 117 55 + 3;
#X connect 0 0 3 1;
#X connect 1 0 5 0;
#X connect 2 0 3 0;
#X connect 3 0 4 0;
#X connect 5 0 2 0;
#X restore 744 162 pd getNote;
#X floatatom 744 207 5 0 0 0 - - - 0;
#X obj 16 238 t b f;
#X obj 164 238 t b f;
#X obj 309 240 t b f;
#X obj 453 239 t b f;
#X obj 604 236 t b f;
#X obj 744 236 t b f;
#X obj 16 94 inlet;
#X obj 69 93 inlet;
#X obj 159 95 inlet;
#X obj 212 94 inlet;
#X obj 309 96 inlet;
#X obj 362 95 inlet;
#X obj 446 94 inlet;
#X obj 499 93 inlet;
#X obj 604 97 inlet;
#X obj 657 96 inlet;
#X obj 744 99 inlet;
#X obj 797 98 inlet;
#X obj 16 386 outlet;
#X obj 16 336 pack 0 0 0 0 0 0 0, f 109;
#X connect 0 0 1 0;
#X connect 1 0 12 0;
#X connect 2 0 3 0;
#X connect 3 0 13 0;
#X connect 4 0 5 0;
#X connect 5 0 14 0;
#X connect 6 0 7 0;
#X connect 7 0 15 0;
#X connect 8 0 9 0;
#X connect 9 0 16 0;
#X connect 10 0 11 0;
#X connect 11 0 17 0;
#X connect 12 0 31 0;
#X connect 12 1 31 1;
#X connect 13 0 31 0;
#X connect 13 1 31 2;
#X connect 14 0 31 0;
#X connect 14 1 31 3;
#X connect 15 0 31 0;
#X connect 15 1 31 4;
#X connect 16 0 31 0;
#X connect 16 1 31 5;
#X connect 17 0 31 0;
#X connect 17 1 31 6;
#X connect 18 0 0 0;
#X connect 19 0 0 1;
#X connect 20 0 2 0;
#X connect 21 0 2 1;
#X connect 22 0 4 0;
#X connect 23 0 4 1;
#X connect 24 0 6 0;
#X connect 25 0 6 1;
#X connect 26 0 8 0;
#X connect 27 0 8 1;
#X connect 28 0 10 0;
#X connect 29 0 10 1;
#X connect 31 0 30 0;
#X restore 38 452 pd calculateNote;
#X f 49;
#X obj 39 602 noteout;
#X obj 109 603 receive chnl;
#X msg 39 528 \$1 \, \$2 \, \$3 \, \$4 \, \$5 \, \$6 \, \$7 \, 1;
#X obj 39 568 makenote 1 1000;
#X obj 494 558 [ Spacial Chord 1 ];
#X obj 67 69 [ A2 ];
#X obj 215 70 [ A1 ];
#X obj 359 70 [ B2 ];
#X obj 507 71 [ B1 ];
#X obj 652 72 [ C2 ];
#X obj 800 73 [ C1 ];
#X connect 0 0 1 0;
#X connect 1 0 133 0;
#X connect 8 0 15 0;
#X connect 15 0 133 1;
#X connect 16 0 17 0;
#X connect 17 0 133 2;
#X connect 18 0 25 0;
#X connect 25 0 133 3;
#X connect 26 0 27 0;
#X connect 27 0 133 4;
#X connect 28 0 35 0;
#X connect 35 0 133 5;
#X connect 36 0 37 0;
#X connect 37 0 133 6;
#X connect 38 0 45 0;
#X connect 45 0 133 7;
#X connect 46 0 47 0;
#X connect 47 0 133 8;
#X connect 48 0 55 0;
#X connect 55 0 133 9;
#X connect 56 0 57 0;
#X connect 57 0 133 10;
#X connect 58 0 65 0;
#X connect 65 0 133 11;
#X connect 66 0 136 0;
#X connect 133 0 66 0;
#X connect 135 0 134 2;
#X connect 136 0 137 0;
#X connect 137 0 134 0;
#X connect 137 1 134 1;
#X restore 22 67 pd Setup Spacial Chord 1;
#N canvas 329 36 912 952 Setup 0;
#X obj 22 100 vradio 20 1 1 12 empty empty Root 0 -10 0 12 #606060 #00ff04 #0f4710 1;
#X floatatom 22 384 5 0 0 0 - - - 0;
#X text 50 99 C;
#X text 50 119 C#/Db;
#X text 50 139 D;
#X text 50 159 D#/Eb;
#X text 50 179 E;
#X text 50 319 B;
#X obj 101 98 vradio 20 1 1 6 empty empty Octave 0 -10 0 12 #606060 #00ff04 #000000 5;
#X text 129 140 3;
#X text 129 160 4;
#X text 130 97 1;
#X text 129 120 2;
#X text 130 179 5;
#X text 130 199 6;
#X floatatom 101 384 5 0 0 0 - - - 0;
#X obj 170 98 vradio 20 1 1 12 empty empty Root 0 -10 0 12 #606060 #00ff04 #000000 3;
#X floatatom 170 382 5 0 0 0 - - - 0;
#X obj 249 99 vradio 20 1 1 6 empty empty Octave 0 -10 0 12 #606060 #00ff04 #000000 5;
#X text 277 141 3;
#X text 277 161 4;
#X text 278 98 1;
#X text 277 121 2;
#X text 278 180 5;
#X text 278 200 6;
#X floatatom 249 382 5 0 0 0 - - - 0;
#X obj 315 99 vradio 20 1 1 12 empty empty Root 0 -10 0 12 #606060 #00ff04 #000000 1;
#X floatatom 315 383 5 0 0 0 - - - 0;
#X obj 393 99 vradio 20 1 1 6 empty empty Octave 0 -10 0 12 #606060 #00ff04 #000000 4;
#X text 421 141 3;
#X text 421 161 4;
#X text 422 98 1;
#X text 421 121 2;
#X text 422 180 5;
#X text 422 200 6;
#X floatatom 393 383 5 0 0 0 - - - 0;
#X obj 459 98 vradio 20 1 1 12 empty empty Root 0 -10 0 12 #606060 #00ff04 #000000 4;
#X floatatom 459 382 5 0 0 0 - - - 0;
#X obj 537 96 vradio 20 1 1 6 empty empty Octave 0 -10 0 12 #606060 #00ff04 #000000 3;
#X text 565 138 3;
#X text 565 158 4;
#X text 566 95 1;
#X text 565 118 2;
#X text 566 177 5;
#X text 566 197 6;
#X floatatom 537 380 5 0 0 0 - - - 0;
#X obj 610 95 vradio 20 1 1 12 empty empty Root 0 -10 0 12 #606060 #00ff04 #000000 2;
#X floatatom 610 379 5 0 0 0 - - - 0;
#X obj 686 93 vradio 20 1 1 6 empty empty Octave 0 -10 0 12 #606060 #00ff04 #000000 2;
#X text 714 135 3;
#X text 714 155 4;
#X text 715 92 1;
#X text 714 115 2;
#X text 715 174 5;
#X text 715 194 6;
#X floatatom 686 380 5 0 0 0 - - - 0;
#X obj 750 94 vradio 20 1 1 12 empty empty Root 0 -10 0 12 #606060 #00ff04 #000000 4;
#X floatatom 751 379 5 0 0 0 - - - 0;
#X obj 830 93 vradio 20 1 1 6 empty empty Octave 0 -10 0 12 #606060 #00ff04 #000000 2;
#X text 858 135 3;
#X text 858 155 4;
#X text 859 92 1;
#X text 858 115 2;
#X text 859 174 5;
#X text 859 194 6;
#X floatatom 830 382 5 0 0 0 - - - 0;
#X listbox 23 471 23 0 0 2 Note\ Group - - 0;
#X text 50 199 F;
#X text 50 219 F#/Gb;
#X text 50 239 G;
#X text 50 259 G#/Ab;
#X text 50 279 A;
#X text 50 299 A#/Bb;
#X text 198 99 C;
#X text 198 119 C#/Db;
#X text 198 139 D;
#X text 198 159 D#/Eb;
#X text 198 179 E;
#X text 198 319 B;
#X text 198 199 F;
#X text 198 219 F#/Gb;
#X text 198 239 G;
#X text 198 259 G#/Ab;
#X text 198 279 A;
#X text 198 299 A#/Bb;
#X text 342 100 C;
#X text 342 120 C#/Db;
#X text 342 140 D;
#X text 342 160 D#/Eb;
#X text 342 180 E;
#X text 342 320 B;
#X text 342 200 F;
#X text 342 220 F#/Gb;
#X text 342 240 G;
#X text 342 260 G#/Ab;
#X text 342 280 A;
#X text 342 300 A#/Bb;
#X text 488 98 C;
#X text 488 118 C#/Db;
#X text 488 138 D;
#X text 488 158 D#/Eb;
#X text 488 178 E;
#X text 488 318 B;
#X text 488 198 F;
#X text 488 218 F#/Gb;
#X text 488 238 G;
#X text 488 258 G#/Ab;
#X text 488 278 A;
#X text 488 298 A#/Bb;
#X text 638 96 C;
#X text 638 116 C#/Db;
#X text 638 136 D;
#X text 638 156 D#/Eb;
#X text 638 176 E;
#X text 638 316 B;
#X text 638 196 F;
#X text 638 216 F#/Gb;
#X text 638 236 G;
#X text 638 256 G#/Ab;
#X text 638 276 A;
#X text 638 296 A#/Bb;
#X text 779 93 C;
#X text 779 113 C#/Db;
#X text 779 133 D;
#X text 779 153 D#/Eb;
#X text 779 173 E;
#X text 779 313 B;
#X text 779 193 F;
#X text 779 213 F#/Gb;
#X text 779 233 G;
#X text 779 253 G#/Ab;
#X text 779 273 A;
#X text 779 293 A#/Bb;
#N canvas 392 140 1116 682 calculateNote 0;
#N canvas 1288 562 450 300 getNote 0;
#X obj 62 25 inlet;
#X obj 117 25 inlet;
#X obj 117 90 * 12;
#X obj 117 160 +;
#X obj 117 205 outlet;
#X obj 117 55 + 3;
#X connect 0 0 3 1;
#X connect 1 0 5 0;
#X connect 2 0 3 0;
#X connect 3 0 4 0;
#X connect 5 0 2 0;
#X restore 16 163 pd getNote;
#X floatatom 16 208 5 0 0 0 - - - 0;
#N canvas 1288 562 450 300 getNote 0;
#X obj 62 25 inlet;
#X obj 117 25 inlet;
#X obj 117 90 * 12;
#X obj 117 160 +;
#X obj 117 205 outlet;
#X obj 117 55 + 3;
#X connect 0 0 3 1;
#X connect 1 0 5 0;
#X connect 2 0 3 0;
#X connect 3 0 4 0;
#X connect 5 0 2 0;
#X restore 164 161 pd getNote;
#X floatatom 164 208 5 0 0 0 - - - 0;
#N canvas 1288 562 450 300 getNote 0;
#X obj 62 25 inlet;
#X obj 117 25 inlet;
#X obj 117 90 * 12;
#X obj 117 160 +;
#X obj 117 205 outlet;
#X obj 117 55 + 3;
#X connect 0 0 3 1;
#X connect 1 0 5 0;
#X connect 2 0 3 0;
#X connect 3 0 4 0;
#X connect 5 0 2 0;
#X restore 309 161 pd getNote;
#X floatatom 309 209 5 0 0 0 - - - 0;
#N canvas 1288 562 450 300 getNote 0;
#X obj 62 25 inlet;
#X obj 117 25 inlet;
#X obj 117 90 * 12;
#X obj 117 160 +;
#X obj 117 205 outlet;
#X obj 117 55 + 3;
#X connect 0 0 3 1;
#X connect 1 0 5 0;
#X connect 2 0 3 0;
#X connect 3 0 4 0;
#X connect 5 0 2 0;
#X restore 453 165 pd getNote;
#X floatatom 453 209 5 0 0 0 - - - 0;
#N canvas 1288 562 450 300 getNote 0;
#X obj 62 25 inlet;
#X obj 117 25 inlet;
#X obj 117 90 * 12;
#X obj 117 160 +;
#X obj 117 205 outlet;
#X obj 117 55 + 3;
#X connect 0 0 3 1;
#X connect 1 0 5 0;
#X connect 2 0 3 0;
#X connect 3 0 4 0;
#X connect 5 0 2 0;
#X restore 604 162 pd getNote;
#X floatatom 604 207 5 0 0 0 - - - 0;
#N canvas 1288 562 450 300 getNote 0;
#X obj 62 25 inlet;
#X obj 117 25 inlet;
#X obj 117 90 * 12;
#X obj 117 160 +;
#X obj 117 205 outlet;
#X obj 117 55 + 3;
#X connect 0 0 3 1;
#X connect 1 0 5 0;
#X connect 2 0 3 0;
#X connect 3 0 4 0;
#X connect 5 0 2 0;
#X restore 744 162 pd getNote;
#X floatatom 744 207 5 0 0 0 - - - 0;
#X obj 16 238 t b f;
#X obj 164 238 t b f;
#X obj 309 240 t b f;
#X obj 453 239 t b f;
#X obj 604 236 t b f;
#X obj 744 236 t b f;
#X obj 16 94 inlet;
#X obj 69 93 inlet;
#X obj 159 95 inlet;
#X obj 212 94 inlet;
#X obj 309 96 inlet;
#X obj 362 95 inlet;
#X obj 446 94 inlet;
#X obj 499 93 inlet;
#X obj 604 97 inlet;
#X obj 657 96 inlet;
#X obj 744 99 inlet;
#X obj 797 98 inlet;
#X obj 16 386 outlet;
#X obj 16 336 pack 0 0 0 0 0 0 0, f 109;
#X connect 0 0 1 0;
#X connect 1 0 12 0;
#X connect 2 0 3 0;
#X connect 3 0 13 0;
#X connect 4 0 5 0;
#X connect 5 0 14 0;
#X connect 6 0 7 0;
#X connect 7 0 15 0;
#X connect 8 0 9 0;
#X connect 9 0 16 0;
#X connect 10 0 11 0;
#X connect 11 0 17 0;
#X connect 12 0 31 0;
#X connect 12 1 31 1;
#X connect 13 0 31 0;
#X connect 13 1 31 2;
#X connect 14 0 31 0;
#X connect 14 1 31 3;
#X connect 15 0 31 0;
#X connect 15 1 31 4;
#X connect 16 0 31 0;
#X connect 16 1 31 5;
#X connect 17 0 31 0;
#X connect 17 1 31 6;
#X connect 18 0 0 0;
#X connect 19 0 0 1;
#X connect 20 0 2 0;
#X connect 21 0 2 1;
#X connect 22 0 4 0;
#X connect 23 0 4 1;
#X connect 24 0 6 0;
#X connect 25 0 6 1;
#X connect 26 0 8 0;
#X connect 27 0 8 1;
#X connect 28 0 10 0;
#X connect 29 0 10 1;
#X connect 31 0 30 0;
#X restore 22 431 pd calculateNote;
#X f 49;
#X obj 23 581 noteout;
#X obj 93 582 receive chnl;
#X obj 23 547 makenote 1 1000;
#X obj 51 48 [ A2 ];
#X obj 199 49 [ A1 ];
#X obj 343 49 [ B2 ];
#X obj 491 50 [ B1 ];
#X obj 636 51 [ C2 ];
#X obj 784 52 [ C1 ];
#X obj 478 537 [ Spacial Chord 2 ];
#X msg 23 507 \$1 \, \$2 \, \$3 \, \$4 \, \$5 \, \$6 \, \$7 \, 2;
#X connect 0 0 1 0;
#X connect 1 0 133 0;
#X connect 8 0 15 0;
#X connect 15 0 133 1;
#X connect 16 0 17 0;
#X connect 17 0 133 2;
#X connect 18 0 25 0;
#X connect 25 0 133 3;
#X connect 26 0 27 0;
#X connect 27 0 133 4;
#X connect 28 0 35 0;
#X connect 35 0 133 5;
#X connect 36 0 37 0;
#X connect 37 0 133 6;
#X connect 38 0 45 0;
#X connect 45 0 133 7;
#X connect 46 0 47 0;
#X connect 47 0 133 8;
#X connect 48 0 55 0;
#X connect 55 0 133 9;
#X connect 56 0 57 0;
#X connect 57 0 133 10;
#X connect 58 0 65 0;
#X connect 65 0 133 11;
#X connect 66 0 144 0;
#X connect 133 0 66 0;
#X connect 135 0 134 2;
#X connect 136 0 134 0;
#X connect 136 1 134 1;
#X connect 144 0 136 0;
#X restore 219 69 pd Setup Spacial Chord 2;
#N canvas 439 237 912 655 Setup 0;
#X obj 37 89 vradio 20 1 1 12 empty empty Root 0 -10 0 12 #606060 #00ff04 #0f4710 3;
#X floatatom 37 373 5 0 0 0 - - - 0;
#X text 65 88 C;
#X text 65 108 C#/Db;
#X text 65 128 D;
#X text 65 148 D#/Eb;
#X text 65 168 E;
#X text 65 308 B;
#X obj 116 87 vradio 20 1 1 6 empty empty Octave 0 -10 0 12 #606060 #00ff04 #000000 4;
#X text 144 129 3;
#X text 144 149 4;
#X text 145 86 1;
#X text 144 109 2;
#X text 145 168 5;
#X text 145 188 6;
#X floatatom 116 373 5 0 0 0 - - - 0;
#X obj 185 87 vradio 20 1 1 12 empty empty Root 0 -10 0 12 #606060 #00ff04 #000000 1;
#X floatatom 185 371 5 0 0 0 - - - 0;
#X obj 264 88 vradio 20 1 1 6 empty empty Octave 0 -10 0 12 #606060 #00ff04 #000000 4;
#X text 292 130 3;
#X text 292 150 4;
#X text 293 87 1;
#X text 292 110 2;
#X text 293 169 5;
#X text 293 189 6;
#X floatatom 264 371 5 0 0 0 - - - 0;
#X obj 330 88 vradio 20 1 1 12 empty empty Root 0 -10 0 12 #606060 #00ff04 #000000 10;
#X floatatom 330 372 5 0 0 0 - - - 0;
#X obj 408 88 vradio 20 1 1 6 empty empty Octave 0 -10 0 12 #606060 #00ff04 #000000 4;
#X text 436 130 3;
#X text 436 150 4;
#X text 437 87 1;
#X text 436 110 2;
#X text 437 169 5;
#X text 437 189 6;
#X floatatom 408 372 5 0 0 0 - - - 0;
#X obj 474 87 vradio 20 1 1 12 empty empty Root 0 -10 0 12 #606060 #00ff04 #000000 1;
#X floatatom 474 371 5 0 0 0 - - - 0;
#X obj 552 85 vradio 20 1 1 6 empty empty Octave 0 -10 0 12 #606060 #00ff04 #000000 4;
#X text 580 127 3;
#X text 580 147 4;
#X text 581 84 1;
#X text 580 107 2;
#X text 581 166 5;
#X text 581 186 6;
#X floatatom 552 369 5 0 0 0 - - - 0;
#X obj 625 84 vradio 20 1 1 12 empty empty Root 0 -10 0 12 #606060 #00ff04 #000000 5;
#X floatatom 625 368 5 0 0 0 - - - 0;
#X obj 701 82 vradio 20 1 1 6 empty empty Octave 0 -10 0 12 #606060 #00ff04 #000000 2;
#X text 729 124 3;
#X text 729 144 4;
#X text 730 81 1;
#X text 729 104 2;
#X text 730 163 5;
#X text 730 183 6;
#X floatatom 701 369 5 0 0 0 - - - 0;
#X obj 765 83 vradio 20 1 1 12 empty empty Root 0 -10 0 12 #606060 #00ff04 #000000 1;
#X floatatom 766 368 5 0 0 0 - - - 0;
#X obj 845 82 vradio 20 1 1 6 empty empty Octave 0 -10 0 12 #606060 #00ff04 #000000 2;
#X text 873 124 3;
#X text 873 144 4;
#X text 874 81 1;
#X text 873 104 2;
#X text 874 163 5;
#X text 874 183 6;
#X floatatom 845 371 5 0 0 0 - - - 0;
#X listbox 38 460 23 0 0 2 Note\ Group - - 0;
#X text 65 188 F;
#X text 65 208 F#/Gb;
#X text 65 228 G;
#X text 65 248 G#/Ab;
#X text 65 268 A;
#X text 65 288 A#/Bb;
#X text 213 88 C;
#X text 213 108 C#/Db;
#X text 213 128 D;
#X text 213 148 D#/Eb;
#X text 213 168 E;
#X text 213 308 B;
#X text 213 188 F;
#X text 213 208 F#/Gb;
#X text 213 228 G;
#X text 213 248 G#/Ab;
#X text 213 268 A;
#X text 213 288 A#/Bb;
#X text 357 89 C;
#X text 357 109 C#/Db;
#X text 357 129 D;
#X text 357 149 D#/Eb;
#X text 357 169 E;
#X text 357 309 B;
#X text 357 189 F;
#X text 357 209 F#/Gb;
#X text 357 229 G;
#X text 357 249 G#/Ab;
#X text 357 269 A;
#X text 357 289 A#/Bb;
#X text 503 87 C;
#X text 503 107 C#/Db;
#X text 503 127 D;
#X text 503 147 D#/Eb;
#X text 503 167 E;
#X text 503 307 B;
#X text 503 187 F;
#X text 503 207 F#/Gb;
#X text 503 227 G;
#X text 503 247 G#/Ab;
#X text 503 267 A;
#X text 503 287 A#/Bb;
#X text 653 85 C;
#X text 653 105 C#/Db;
#X text 653 125 D;
#X text 653 145 D#/Eb;
#X text 653 165 E;
#X text 653 305 B;
#X text 653 185 F;
#X text 653 205 F#/Gb;
#X text 653 225 G;
#X text 653 245 G#/Ab;
#X text 653 265 A;
#X text 653 285 A#/Bb;
#X text 794 82 C;
#X text 794 102 C#/Db;
#X text 794 122 D;
#X text 794 142 D#/Eb;
#X text 794 162 E;
#X text 794 302 B;
#X text 794 182 F;
#X text 794 202 F#/Gb;
#X text 794 222 G;
#X text 794 242 G#/Ab;
#X text 794 262 A;
#X text 794 282 A#/Bb;
#N canvas 392 140 1116 682 calculateNote 0;
#N canvas 1288 562 450 300 getNote 0;
#X obj 62 25 inlet;
#X obj 117 25 inlet;
#X obj 117 90 * 12;
#X obj 117 160 +;
#X obj 117 205 outlet;
#X obj 117 55 + 3;
#X connect 0 0 3 1;
#X connect 1 0 5 0;
#X connect 2 0 3 0;
#X connect 3 0 4 0;
#X connect 5 0 2 0;
#X restore 16 163 pd getNote;
#X floatatom 16 208 5 0 0 0 - - - 0;
#N canvas 1288 562 450 300 getNote 0;
#X obj 62 25 inlet;
#X obj 117 25 inlet;
#X obj 117 90 * 12;
#X obj 117 160 +;
#X obj 117 205 outlet;
#X obj 117 55 + 3;
#X connect 0 0 3 1;
#X connect 1 0 5 0;
#X connect 2 0 3 0;
#X connect 3 0 4 0;
#X connect 5 0 2 0;
#X restore 164 161 pd getNote;
#X floatatom 164 208 5 0 0 0 - - - 0;
#N canvas 1288 562 450 300 getNote 0;
#X obj 62 25 inlet;
#X obj 117 25 inlet;
#X obj 117 90 * 12;
#X obj 117 160 +;
#X obj 117 205 outlet;
#X obj 117 55 + 3;
#X connect 0 0 3 1;
#X connect 1 0 5 0;
#X connect 2 0 3 0;
#X connect 3 0 4 0;
#X connect 5 0 2 0;
#X restore 309 161 pd getNote;
#X floatatom 309 209 5 0 0 0 - - - 0;
#N canvas 1288 562 450 300 getNote 0;
#X obj 62 25 inlet;
#X obj 117 25 inlet;
#X obj 117 90 * 12;
#X obj 117 160 +;
#X obj 117 205 outlet;
#X obj 117 55 + 3;
#X connect 0 0 3 1;
#X connect 1 0 5 0;
#X connect 2 0 3 0;
#X connect 3 0 4 0;
#X connect 5 0 2 0;
#X restore 453 165 pd getNote;
#X floatatom 453 209 5 0 0 0 - - - 0;
#N canvas 1288 562 450 300 getNote 0;
#X obj 62 25 inlet;
#X obj 117 25 inlet;
#X obj 117 90 * 12;
#X obj 117 160 +;
#X obj 117 205 outlet;
#X obj 117 55 + 3;
#X connect 0 0 3 1;
#X connect 1 0 5 0;
#X connect 2 0 3 0;
#X connect 3 0 4 0;
#X connect 5 0 2 0;
#X restore 604 162 pd getNote;
#X floatatom 604 207 5 0 0 0 - - - 0;
#N canvas 1288 562 450 300 getNote 0;
#X obj 62 25 inlet;
#X obj 117 25 inlet;
#X obj 117 90 * 12;
#X obj 117 160 +;
#X obj 117 205 outlet;
#X obj 117 55 + 3;
#X connect 0 0 3 1;
#X connect 1 0 5 0;
#X connect 2 0 3 0;
#X connect 3 0 4 0;
#X connect 5 0 2 0;
#X restore 744 162 pd getNote;
#X floatatom 744 207 5 0 0 0 - - - 0;
#X obj 16 238 t b f;
#X obj 164 238 t b f;
#X obj 309 240 t b f;
#X obj 453 239 t b f;
#X obj 604 236 t b f;
#X obj 744 236 t b f;
#X obj 16 94 inlet;
#X obj 69 93 inlet;
#X obj 159 95 inlet;
#X obj 212 94 inlet;
#X obj 309 96 inlet;
#X obj 362 95 inlet;
#X obj 446 94 inlet;
#X obj 499 93 inlet;
#X obj 604 97 inlet;
#X obj 657 96 inlet;
#X obj 744 99 inlet;
#X obj 797 98 inlet;
#X obj 16 386 outlet;
#X obj 16 336 pack 0 0 0 0 0 0 0, f 109;
#X connect 0 0 1 0;
#X connect 1 0 12 0;
#X connect 2 0 3 0;
#X connect 3 0 13 0;
#X connect 4 0 5 0;
#X connect 5 0 14 0;
#X connect 6 0 7 0;
#X connect 7 0 15 0;
#X connect 8 0 9 0;
#X connect 9 0 16 0;
#X connect 10 0 11 0;
#X connect 11 0 17 0;
#X connect 12 0 31 0;
#X connect 12 1 31 1;
#X connect 13 0 31 0;
#X connect 13 1 31 2;
#X connect 14 0 31 0;
#X connect 14 1 31 3;
#X connect 15 0 31 0;
#X connect 15 1 31 4;
#X connect 16 0 31 0;
#X connect 16 1 31 5;
#X connect 17 0 31 0;
#X connect 17 1 31 6;
#X connect 18 0 0 0;
#X connect 19 0 0 1;
#X connect 20 0 2 0;
#X connect 21 0 2 1;
#X connect 22 0 4 0;
#X connect 23 0 4 1;
#X connect 24 0 6 0;
#X connect 25 0 6 1;
#X connect 26 0 8 0;
#X connect 27 0 8 1;
#X connect 28 0 10 0;
#X connect 29 0 10 1;
#X connect 31 0 30 0;
#X restore 37 420 pd calculateNote;
#X f 49;
#X obj 38 570 noteout;
#X obj 108 571 receive chnl;
#X obj 38 536 makenote 1 1000;
#X obj 66 37 [ A2 ];
#X obj 214 38 [ A1 ];
#X obj 358 38 [ B2 ];
#X obj 506 39 [ B1 ];
#X obj 651 40 [ C2 ];
#X obj 799 41 [ C1 ];
#X msg 38 496 \$1 \, \$2 \, \$3 \, \$4 \, \$5 \, \$6 \, \$7 \, 3;
#X obj 493 526 [ Spacial Chord 3 ];
#X connect 0 0 1 0;
#X connect 1 0 133 0;
#X connect 8 0 15 0;
#X connect 15 0 133 1;
#X connect 16 0 17 0;
#X connect 17 0 133 2;
#X connect 18 0 25 0;
#X connect 25 0 133 3;
#X connect 26 0 27 0;
#X connect 27 0 133 4;
#X connect 28 0 35 0;
#X connect 35 0 133 5;
#X connect 36 0 37 0;
#X connect 37 0 133 6;
#X connect 38 0 45 0;
#X connect 45 0 133 7;
#X connect 46 0 47 0;
#X connect 47 0 133 8;
#X connect 48 0 55 0;
#X connect 55 0 133 9;
#X connect 56 0 57 0;
#X connect 57 0 133 10;
#X connect 58 0 65 0;
#X connect 65 0 133 11;
#X connect 66 0 143 0;
#X connect 133 0 66 0;
#X connect 135 0 134 2;
#X connect 136 0 134 0;
#X connect 136 1 134 1;
#X connect 143 0 136 0;
#X restore 408 70 pd Setup Spacial Chord 3;
#N canvas 706 102 912 660 Setup 0;
#X obj 38 80 vradio 20 1 1 12 empty empty Root 0 -10 0 12 #606060 #00ff04 #0f4710 1;
#X floatatom 38 364 5 0 0 0 - - - 0;
#X text 66 79 C;
#X text 66 99 C#/Db;
#X text 66 119 D;
#X text 66 139 D#/Eb;
#X text 66 159 E;
#X text 66 299 B;
#X obj 117 78 vradio 20 1 1 6 empty empty Octave 0 -10 0 12 #606060 #00ff04 #000000 4;
#X text 145 120 3;
#X text 145 140 4;
#X text 146 77 1;
#X text 145 100 2;
#X text 146 159 5;
#X text 146 179 6;
#X floatatom 117 364 5 0 0 0 - - - 0;
#X obj 186 78 vradio 20 1 1 12 empty empty Root 0 -10 0 12 #606060 #00ff04 #000000 8;
#X floatatom 186 362 5 0 0 0 - - - 0;
#X obj 265 79 vradio 20 1 1 6 empty empty Octave 0 -10 0 12 #606060 #00ff04 #000000 4;
#X text 293 121 3;
#X text 293 141 4;
#X text 294 78 1;
#X text 293 101 2;
#X text 294 160 5;
#X text 294 180 6;
#X floatatom 265 362 5 0 0 0 - - - 0;
#X obj 331 79 vradio 20 1 1 12 empty empty Root 0 -10 0 12 #606060 #00ff04 #000000 6;
#X floatatom 331 363 5 0 0 0 - - - 0;
#X obj 409 79 vradio 20 1 1 6 empty empty Octave 0 -10 0 12 #606060 #00ff04 #000000 3;
#X text 437 121 3;
#X text 437 141 4;
#X text 438 78 1;
#X text 437 101 2;
#X text 438 160 5;
#X text 438 180 6;
#X floatatom 409 363 5 0 0 0 - - - 0;
#X obj 475 78 vradio 20 1 1 12 empty empty Root 0 -10 0 12 #606060 #00ff04 #000000 2;
#X floatatom 475 362 5 0 0 0 - - - 0;
#X obj 553 76 vradio 20 1 1 6 empty empty Octave 0 -10 0 12 #606060 #00ff04 #000000 5;
#X text 581 118 3;
#X text 581 138 4;
#X text 582 75 1;
#X text 581 98 2;
#X text 582 157 5;
#X text 582 177 6;
#X floatatom 553 360 5 0 0 0 - - - 0;
#X obj 626 75 vradio 20 1 1 12 empty empty Root 0 -10 0 12 #606060 #00ff04 #000000 5;
#X floatatom 626 359 5 0 0 0 - - - 0;
#X obj 702 73 vradio 20 1 1 6 empty empty Octave 0 -10 0 12 #606060 #00ff04 #000000 3;
#X text 730 115 3;
#X text 730 135 4;
#X text 731 72 1;
#X text 730 95 2;
#X text 731 154 5;
#X text 731 174 6;
#X floatatom 702 360 5 0 0 0 - - - 0;
#X obj 766 74 vradio 20 1 1 12 empty empty Root 0 -10 0 12 #606060 #00ff04 #000000 4;
#X floatatom 767 359 5 0 0 0 - - - 0;
#X obj 846 73 vradio 20 1 1 6 empty empty Octave 0 -10 0 12 #606060 #00ff04 #000000 0;
#X text 874 115 3;
#X text 874 135 4;
#X text 875 72 1;
#X text 874 95 2;
#X text 875 154 5;
#X text 875 174 6;
#X floatatom 846 362 5 0 0 0 - - - 0;
#X listbox 39 451 23 0 0 2 Note\ Group - - 0;
#X text 66 179 F;
#X text 66 199 F#/Gb;
#X text 66 219 G;
#X text 66 239 G#/Ab;
#X text 66 259 A;
#X text 66 279 A#/Bb;
#X text 214 79 C;
#X text 214 99 C#/Db;
#X text 214 119 D;
#X text 214 139 D#/Eb;
#X text 214 159 E;
#X text 214 299 B;
#X text 214 179 F;
#X text 214 199 F#/Gb;
#X text 214 219 G;
#X text 214 239 G#/Ab;
#X text 214 259 A;
#X text 214 279 A#/Bb;
#X text 358 80 C;
#X text 358 100 C#/Db;
#X text 358 120 D;
#X text 358 140 D#/Eb;
#X text 358 160 E;
#X text 358 300 B;
#X text 358 180 F;
#X text 358 200 F#/Gb;
#X text 358 220 G;
#X text 358 240 G#/Ab;
#X text 358 260 A;
#X text 358 280 A#/Bb;
#X text 504 78 C;
#X text 504 98 C#/Db;
#X text 504 118 D;
#X text 504 138 D#/Eb;
#X text 504 158 E;
#X text 504 298 B;
#X text 504 178 F;
#X text 504 198 F#/Gb;
#X text 504 218 G;
#X text 504 238 G#/Ab;
#X text 504 258 A;
#X text 504 278 A#/Bb;
#X text 654 76 C;
#X text 654 96 C#/Db;
#X text 654 116 D;
#X text 654 136 D#/Eb;
#X text 654 156 E;
#X text 654 296 B;
#X text 654 176 F;
#X text 654 196 F#/Gb;
#X text 654 216 G;
#X text 654 236 G#/Ab;
#X text 654 256 A;
#X text 654 276 A#/Bb;
#X text 795 73 C;
#X text 795 93 C#/Db;
#X text 795 113 D;
#X text 795 133 D#/Eb;
#X text 795 153 E;
#X text 795 293 B;
#X text 795 173 F;
#X text 795 193 F#/Gb;
#X text 795 213 G;
#X text 795 233 G#/Ab;
#X text 795 253 A;
#X text 795 273 A#/Bb;
#N canvas 392 140 1116 682 calculateNote 0;
#N canvas 1288 562 450 300 getNote 0;
#X obj 62 25 inlet;
#X obj 117 25 inlet;
#X obj 117 90 * 12;
#X obj 117 160 +;
#X obj 117 205 outlet;
#X obj 117 55 + 3;
#X connect 0 0 3 1;
#X connect 1 0 5 0;
#X connect 2 0 3 0;
#X connect 3 0 4 0;
#X connect 5 0 2 0;
#X restore 16 163 pd getNote;
#X floatatom 16 208 5 0 0 0 - - - 0;
#N canvas 1288 562 450 300 getNote 0;
#X obj 62 25 inlet;
#X obj 117 25 inlet;
#X obj 117 90 * 12;
#X obj 117 160 +;
#X obj 117 205 outlet;
#X obj 117 55 + 3;
#X connect 0 0 3 1;
#X connect 1 0 5 0;
#X connect 2 0 3 0;
#X connect 3 0 4 0;
#X connect 5 0 2 0;
#X restore 164 161 pd getNote;
#X floatatom 164 208 5 0 0 0 - - - 0;
#N canvas 1288 562 450 300 getNote 0;
#X obj 62 25 inlet;
#X obj 117 25 inlet;
#X obj 117 90 * 12;
#X obj 117 160 +;
#X obj 117 205 outlet;
#X obj 117 55 + 3;
#X connect 0 0 3 1;
#X connect 1 0 5 0;
#X connect 2 0 3 0;
#X connect 3 0 4 0;
#X connect 5 0 2 0;
#X restore 309 161 pd getNote;
#X floatatom 309 209 5 0 0 0 - - - 0;
#N canvas 1288 562 450 300 getNote 0;
#X obj 62 25 inlet;
#X obj 117 25 inlet;
#X obj 117 90 * 12;
#X obj 117 160 +;
#X obj 117 205 outlet;
#X obj 117 55 + 3;
#X connect 0 0 3 1;
#X connect 1 0 5 0;
#X connect 2 0 3 0;
#X connect 3 0 4 0;
#X connect 5 0 2 0;
#X restore 453 165 pd getNote;
#X floatatom 453 209 5 0 0 0 - - - 0;
#N canvas 1288 562 450 300 getNote 0;
#X obj 62 25 inlet;
#X obj 117 25 inlet;
#X obj 117 90 * 12;
#X obj 117 160 +;
#X obj 117 205 outlet;
#X obj 117 55 + 3;
#X connect 0 0 3 1;
#X connect 1 0 5 0;
#X connect 2 0 3 0;
#X connect 3 0 4 0;
#X connect 5 0 2 0;
#X restore 604 162 pd getNote;
#X floatatom 604 207 5 0 0 0 - - - 0;
#N canvas 1288 562 450 300 getNote 0;
#X obj 62 25 inlet;
#X obj 117 25 inlet;
#X obj 117 90 * 12;
#X obj 117 160 +;
#X obj 117 205 outlet;
#X obj 117 55 + 3;
#X connect 0 0 3 1;
#X connect 1 0 5 0;
#X connect 2 0 3 0;
#X connect 3 0 4 0;
#X connect 5 0 2 0;
#X restore 744 162 pd getNote;
#X floatatom 744 207 5 0 0 0 - - - 0;
#X obj 16 238 t b f;
#X obj 164 238 t b f;
#X obj 309 240 t b f;
#X obj 453 239 t b f;
#X obj 604 236 t b f;
#X obj 744 236 t b f;
#X obj 16 94 inlet;
#X obj 69 93 inlet;
#X obj 159 95 inlet;
#X obj 212 94 inlet;
#X obj 309 96 inlet;
#X obj 362 95 inlet;
#X obj 446 94 inlet;
#X obj 499 93 inlet;
#X obj 604 97 inlet;
#X obj 657 96 inlet;
#X obj 744 99 inlet;
#X obj 797 98 inlet;
#X obj 16 386 outlet;
#X obj 16 336 pack 0 0 0 0 0 0 0, f 109;
#X connect 0 0 1 0;
#X connect 1 0 12 0;
#X connect 2 0 3 0;
#X connect 3 0 13 0;
#X connect 4 0 5 0;
#X connect 5 0 14 0;
#X connect 6 0 7 0;
#X connect 7 0 15 0;
#X connect 8 0 9 0;
#X connect 9 0 16 0;
#X connect 10 0 11 0;
#X connect 11 0 17 0;
#X connect 12 0 31 0;
#X connect 12 1 31 1;
#X connect 13 0 31 0;
#X connect 13 1 31 2;
#X connect 14 0 31 0;
#X connect 14 1 31 3;
#X connect 15 0 31 0;
#X connect 15 1 31 4;
#X connect 16 0 31 0;
#X connect 16 1 31 5;
#X connect 17 0 31 0;
#X connect 17 1 31 6;
#X connect 18 0 0 0;
#X connect 19 0 0 1;
#X connect 20 0 2 0;
#X connect 21 0 2 1;
#X connect 22 0 4 0;
#X connect 23 0 4 1;
#X connect 24 0 6 0;
#X connect 25 0 6 1;
#X connect 26 0 8 0;
#X connect 27 0 8 1;
#X connect 28 0 10 0;
#X connect 29 0 10 1;
#X connect 31 0 30 0;
#X restore 38 411 pd calculateNote;
#X f 49;
#X obj 39 561 noteout;
#X obj 109 562 receive chnl;
#X obj 39 527 makenote 1 1000;
#X obj 67 28 [ A2 ];
#X obj 215 29 [ A1 ];
#X obj 359 29 [ B2 ];
#X obj 507 30 [ B1 ];
#X obj 652 31 [ C2 ];
#X obj 800 32 [ C1 ];
#X msg 40 487 \$1 \, \$2 \, \$3 \, \$4 \, \$5 \, \$6 \, \$7 \, 4;
#X obj 494 517 [ Spacial Chord 4 ];
#X connect 0 0 1 0;
#X connect 1 0 133 0;
#X connect 8 0 15 0;
#X connect 15 0 133 1;
#X connect 16 0 17 0;
#X connect 17 0 133 2;
#X connect 18 0 25 0;
#X connect 25 0 133 3;
#X connect 26 0 27 0;
#X connect 27 0 133 4;
#X connect 28 0 35 0;
#X connect 35 0 133 5;
#X connect 36 0 37 0;
#X connect 37 0 133 6;
#X connect 38 0 45 0;
#X connect 45 0 133 7;
#X connect 46 0 47 0;
#X connect 47 0 133 8;
#X connect 48 0 55 0;
#X connect 55 0 133 9;
#X connect 56 0 57 0;
#X connect 57 0 133 10;
#X connect 58 0 65 0;
#X connect 65 0 133 11;
#X connect 66 0 143 0;
#X connect 133 0 66 0;
#X connect 135 0 134 2;
#X connect 136 0 134 0;
#X connect 136 1 134 1;
#X connect 143 0 136 0;
#X restore 21 148 pd Setup Spacial Chord 4;
#N canvas 451 158 912 667 Setup 0;
#X obj 40 94 vradio 20 1 1 12 empty empty Root 0 -10 0 12 #606060 #00ff04 #0f4710 1;
#X floatatom 40 378 5 0 0 0 - - - 0;
#X text 68 93 C;
#X text 68 113 C#/Db;
#X text 68 133 D;
#X text 68 153 D#/Eb;
#X text 68 173 E;
#X text 68 313 B;
#X obj 119 92 vradio 20 1 1 6 empty empty Octave 0 -10 0 12 #606060 #00ff04 #000000 1;
#X text 147 134 3;
#X text 147 154 4;
#X text 148 91 1;
#X text 147 114 2;
#X text 148 173 5;
#X text 148 193 6;
#X floatatom 119 378 5 0 0 0 - - - 0;
#X obj 188 92 vradio 20 1 1 12 empty empty Root 0 -10 0 12 #606060 #00ff04 #000000 3;
#X floatatom 188 376 5 0 0 0 - - - 0;
#X obj 267 93 vradio 20 1 1 6 empty empty Octave 0 -10 0 12 #606060 #00ff04 #000000 1;
#X text 295 135 3;
#X text 295 155 4;
#X text 296 92 1;
#X text 295 115 2;
#X text 296 174 5;
#X text 296 194 6;
#X floatatom 267 376 5 0 0 0 - - - 0;
#X obj 333 93 vradio 20 1 1 12 empty empty Root 0 -10 0 12 #606060 #00ff04 #000000 1;
#X floatatom 333 377 5 0 0 0 - - - 0;
#X obj 411 93 vradio 20 1 1 6 empty empty Octave 0 -10 0 12 #606060 #00ff04 #000000 1;
#X text 439 135 3;
#X text 439 155 4;
#X text 440 92 1;
#X text 439 115 2;
#X text 440 174 5;
#X text 440 194 6;
#X floatatom 411 377 5 0 0 0 - - - 0;
#X obj 477 92 vradio 20 1 1 12 empty empty Root 0 -10 0 12 #606060 #00ff04 #000000 4;
#X floatatom 477 376 5 0 0 0 - - - 0;
#X obj 555 90 vradio 20 1 1 6 empty empty Octave 0 -10 0 12 #606060 #00ff04 #000000 1;
#X text 583 132 3;
#X text 583 152 4;
#X text 584 89 1;
#X text 583 112 2;
#X text 584 171 5;
#X text 584 191 6;
#X floatatom 555 374 5 0 0 0 - - - 0;
#X obj 628 89 vradio 20 1 1 12 empty empty Root 0 -10 0 12 #606060 #00ff04 #000000 2;
#X floatatom 628 373 5 0 0 0 - - - 0;
#X obj 704 87 vradio 20 1 1 6 empty empty Octave 0 -10 0 12 #606060 #00ff04 #000000 0;
#X text 732 129 3;
#X text 732 149 4;
#X text 733 86 1;
#X text 732 109 2;
#X text 733 168 5;
#X text 733 188 6;
#X floatatom 704 374 5 0 0 0 - - - 0;
#X obj 768 88 vradio 20 1 1 12 empty empty Root 0 -10 0 12 #606060 #00ff04 #000000 4;
#X floatatom 769 373 5 0 0 0 - - - 0;
#X obj 848 87 vradio 20 1 1 6 empty empty Octave 0 -10 0 12 #606060 #00ff04 #000000 5;
#X text 876 129 3;
#X text 876 149 4;
#X text 877 86 1;
#X text 876 109 2;
#X text 877 168 5;
#X text 877 188 6;
#X floatatom 848 376 5 0 0 0 - - - 0;
#X listbox 41 465 23 0 0 2 Note\ Group - - 0;
#X text 68 193 F;
#X text 68 213 F#/Gb;
#X text 68 233 G;
#X text 68 253 G#/Ab;
#X text 68 273 A;
#X text 68 293 A#/Bb;
#X text 216 93 C;
#X text 216 113 C#/Db;
#X text 216 133 D;
#X text 216 153 D#/Eb;
#X text 216 173 E;
#X text 216 313 B;
#X text 216 193 F;
#X text 216 213 F#/Gb;
#X text 216 233 G;
#X text 216 253 G#/Ab;
#X text 216 273 A;
#X text 216 293 A#/Bb;
#X text 360 94 C;
#X text 360 114 C#/Db;
#X text 360 134 D;
#X text 360 154 D#/Eb;
#X text 360 174 E;
#X text 360 314 B;
#X text 360 194 F;
#X text 360 214 F#/Gb;
#X text 360 234 G;
#X text 360 254 G#/Ab;
#X text 360 274 A;
#X text 360 294 A#/Bb;
#X text 506 92 C;
#X text 506 112 C#/Db;
#X text 506 132 D;
#X text 506 152 D#/Eb;
#X text 506 172 E;
#X text 506 312 B;
#X text 506 192 F;
#X text 506 212 F#/Gb;
#X text 506 232 G;
#X text 506 252 G#/Ab;
#X text 506 272 A;
#X text 506 292 A#/Bb;
#X text 656 90 C;
#X text 656 110 C#/Db;
#X text 656 130 D;
#X text 656 150 D#/Eb;
#X text 656 170 E;
#X text 656 310 B;
#X text 656 190 F;
#X text 656 210 F#/Gb;
#X text 656 230 G;
#X text 656 250 G#/Ab;
#X text 656 270 A;
#X text 656 290 A#/Bb;
#X text 797 87 C;
#X text 797 107 C#/Db;
#X text 797 127 D;
#X text 797 147 D#/Eb;
#X text 797 167 E;
#X text 797 307 B;
#X text 797 187 F;
#X text 797 207 F#/Gb;
#X text 797 227 G;
#X text 797 247 G#/Ab;
#X text 797 267 A;
#X text 797 287 A#/Bb;
#N canvas 392 140 1116 682 calculateNote 0;
#N canvas 1288 562 450 300 getNote 0;
#X obj 62 25 inlet;
#X obj 117 25 inlet;
#X obj 117 90 * 12;
#X obj 117 160 +;
#X obj 117 205 outlet;
#X obj 117 55 + 3;
#X connect 0 0 3 1;
#X connect 1 0 5 0;
#X connect 2 0 3 0;
#X connect 3 0 4 0;
#X connect 5 0 2 0;
#X restore 16 163 pd getNote;
#X floatatom 16 208 5 0 0 0 - - - 0;
#N canvas 1288 562 450 300 getNote 0;
#X obj 62 25 inlet;
#X obj 117 25 inlet;
#X obj 117 90 * 12;
#X obj 117 160 +;
#X obj 117 205 outlet;
#X obj 117 55 + 3;
#X connect 0 0 3 1;
#X connect 1 0 5 0;
#X connect 2 0 3 0;
#X connect 3 0 4 0;
#X connect 5 0 2 0;
#X restore 164 161 pd getNote;
#X floatatom 164 208 5 0 0 0 - - - 0;
#N canvas 1288 562 450 300 getNote 0;
#X obj 62 25 inlet;
#X obj 117 25 inlet;
#X obj 117 90 * 12;
#X obj 117 160 +;
#X obj 117 205 outlet;
#X obj 117 55 + 3;
#X connect 0 0 3 1;
#X connect 1 0 5 0;
#X connect 2 0 3 0;
#X connect 3 0 4 0;
#X connect 5 0 2 0;
#X restore 309 161 pd getNote;
#X floatatom 309 209 5 0 0 0 - - - 0;
#N canvas 1288 562 450 300 getNote 0;
#X obj 62 25 inlet;
#X obj 117 25 inlet;
#X obj 117 90 * 12;
#X obj 117 160 +;
#X obj 117 205 outlet;
#X obj 117 55 + 3;
#X connect 0 0 3 1;
#X connect 1 0 5 0;
#X connect 2 0 3 0;
#X connect 3 0 4 0;
#X connect 5 0 2 0;
#X restore 453 165 pd getNote;
#X floatatom 453 209 5 0 0 0 - - - 0;
#N canvas 1288 562 450 300 getNote 0;
#X obj 62 25 inlet;
#X obj 117 25 inlet;
#X obj 117 90 * 12;
#X obj 117 160 +;
#X obj 117 205 outlet;
#X obj 117 55 + 3;
#X connect 0 0 3 1;
#X connect 1 0 5 0;
#X connect 2 0 3 0;
#X connect 3 0 4 0;
#X connect 5 0 2 0;
#X restore 604 162 pd getNote;
#X floatatom 604 207 5 0 0 0 - - - 0;
#N canvas 1288 562 450 300 getNote 0;
#X obj 62 25 inlet;
#X obj 117 25 inlet;
#X obj 117 90 * 12;
#X obj 117 160 +;
#X obj 117 205 outlet;
#X obj 117 55 + 3;
#X connect 0 0 3 1;
#X connect 1 0 5 0;
#X connect 2 0 3 0;
#X connect 3 0 4 0;
#X connect 5 0 2 0;
#X restore 744 162 pd getNote;
#X floatatom 744 207 5 0 0 0 - - - 0;
#X obj 16 238 t b f;
#X obj 164 238 t b f;
#X obj 309 240 t b f;
#X obj 453 239 t b f;
#X obj 604 236 t b f;
#X obj 744 236 t b f;
#X obj 16 94 inlet;
#X obj 69 93 inlet;
#X obj 159 95 inlet;
#X obj 212 94 inlet;
#X obj 309 96 inlet;
#X obj 362 95 inlet;
#X obj 446 94 inlet;
#X obj 499 93 inlet;
#X obj 604 97 inlet;
#X obj 657 96 inlet;
#X obj 744 99 inlet;
#X obj 797 98 inlet;
#X obj 16 386 outlet;
#X obj 16 336 pack 0 0 0 0 0 0 0, f 109;
#X connect 0 0 1 0;
#X connect 1 0 12 0;
#X connect 2 0 3 0;
#X connect 3 0 13 0;
#X connect 4 0 5 0;
#X connect 5 0 14 0;
#X connect 6 0 7 0;
#X connect 7 0 15 0;
#X connect 8 0 9 0;
#X connect 9 0 16 0;
#X connect 10 0 11 0;
#X connect 11 0 17 0;
#X connect 12 0 31 0;
#X connect 12 1 31 1;
#X connect 13 0 31 0;
#X connect 13 1 31 2;
#X connect 14 0 31 0;
#X connect 14 1 31 3;
#X connect 15 0 31 0;
#X connect 15 1 31 4;
#X connect 16 0 31 0;
#X connect 16 1 31 5;
#X connect 17 0 31 0;
#X connect 17 1 31 6;
#X connect 18 0 0 0;
#X connect 19 0 0 1;
#X connect 20 0 2 0;
#X connect 21 0 2 1;
#X connect 22 0 4 0;
#X connect 23 0 4 1;
#X connect 24 0 6 0;
#X connect 25 0 6 1;
#X connect 26 0 8 0;
#X connect 27 0 8 1;
#X connect 28 0 10 0;
#X connect 29 0 10 1;
#X connect 31 0 30 0;
#X restore 40 425 pd calculateNote;
#X f 49;
#X obj 41 575 noteout;
#X obj 111 576 receive chnl;
#X obj 41 541 makenote 1 1000;
#X obj 69 42 [ A2 ];
#X obj 217 43 [ A1 ];
#X obj 361 43 [ B2 ];
#X obj 509 44 [ B1 ];
#X obj 654 45 [ C2 ];
#X obj 802 46 [ C1 ];
#X msg 41 501 \$1 \, \$2 \, \$3 \, \$4 \, \$5 \, \$6 \, \$7 \, 5;
#X obj 496 531 [ Spacial Chord 5 ];
#X connect 0 0 1 0;
#X connect 1 0 133 0;
#X connect 8 0 15 0;
#X connect 15 0 133 1;
#X connect 16 0 17 0;
#X connect 17 0 133 2;
#X connect 18 0 25 0;
#X connect 25 0 133 3;
#X connect 26 0 27 0;
#X connect 27 0 133 4;
#X connect 28 0 35 0;
#X connect 35 0 133 5;
#X connect 36 0 37 0;
#X connect 37 0 133 6;
#X connect 38 0 45 0;
#X connect 45 0 133 7;
#X connect 46 0 47 0;
#X connect 47 0 133 8;
#X connect 48 0 55 0;
#X connect 55 0 133 9;
#X connect 56 0 57 0;
#X connect 57 0 133 10;
#X connect 58 0 65 0;
#X connect 65 0 133 11;
#X connect 66 0 143 0;
#X connect 133 0 66 0;
#X connect 135 0 134 2;
#X connect 136 0 134 0;
#X connect 136 1 134 1;
#X connect 143 0 136 0;
#X restore 219 151 pd Setup Spacial Chord 5;
#N canvas 526 145 912 590 Setup 0;
#X obj 31 70 vradio 20 1 1 12 empty empty Root 0 -10 0 12 #606060 #00ff04 #0f4710 3;
#X floatatom 31 354 5 0 0 0 - - - 0;
#X text 59 69 C;
#X text 59 89 C#/Db;
#X text 59 109 D;
#X text 59 129 D#/Eb;
#X text 59 149 E;
#X text 59 289 B;
#X obj 110 68 vradio 20 1 1 6 empty empty Octave 0 -10 0 12 #606060 #00ff04 #000000 3;
#X text 138 110 3;
#X text 138 130 4;
#X text 139 67 1;
#X text 138 90 2;
#X text 139 149 5;
#X text 139 169 6;
#X floatatom 110 354 5 0 0 0 - - - 0;
#X obj 179 68 vradio 20 1 1 12 empty empty Root 0 -10 0 12 #606060 #00ff04 #000000 7;
#X floatatom 179 352 5 0 0 0 - - - 0;
#X obj 258 69 vradio 20 1 1 6 empty empty Octave 0 -10 0 12 #606060 #00ff04 #000000 3;
#X text 286 111 3;
#X text 286 131 4;
#X text 287 68 1;
#X text 286 91 2;
#X text 287 150 5;
#X text 287 170 6;
#X floatatom 258 352 5 0 0 0 - - - 0;
#X obj 324 69 vradio 20 1 1 12 empty empty Root 0 -10 0 12 #606060 #00ff04 #000000 7;
#X floatatom 324 353 5 0 0 0 - - - 0;
#X obj 402 69 vradio 20 1 1 6 empty empty Octave 0 -10 0 12 #606060 #00ff04 #000000 3;
#X text 430 111 3;
#X text 430 131 4;
#X text 431 68 1;
#X text 430 91 2;
#X text 431 150 5;
#X text 431 170 6;
#X floatatom 402 353 5 0 0 0 - - - 0;
#X obj 468 68 vradio 20 1 1 12 empty empty Root 0 -10 0 12 #606060 #00ff04 #000000 1;
#X floatatom 468 352 5 0 0 0 - - - 0;
#X obj 546 66 vradio 20 1 1 6 empty empty Octave 0 -10 0 12 #606060 #00ff04 #000000 4;
#X text 574 108 3;
#X text 574 128 4;
#X text 575 65 1;
#X text 574 88 2;
#X text 575 147 5;
#X text 575 167 6;
#X floatatom 546 350 5 0 0 0 - - - 0;
#X obj 619 65 vradio 20 1 1 12 empty empty Root 0 -10 0 12 #606060 #00ff04 #000000 7;
#X floatatom 619 349 5 0 0 0 - - - 0;
#X obj 695 63 vradio 20 1 1 6 empty empty Octave 0 -10 0 12 #606060 #00ff04 #000000 2;
#X text 723 105 3;
#X text 723 125 4;
#X text 724 62 1;
#X text 723 85 2;
#X text 724 144 5;
#X text 724 164 6;
#X floatatom 695 350 5 0 0 0 - - - 0;
#X obj 759 64 vradio 20 1 1 12 empty empty Root 0 -10 0 12 #606060 #00ff04 #000000 1;
#X floatatom 760 349 5 0 0 0 - - - 0;
#X obj 839 63 vradio 20 1 1 6 empty empty Octave 0 -10 0 12 #606060 #00ff04 #000000 3;
#X text 867 105 3;
#X text 867 125 4;
#X text 868 62 1;
#X text 867 85 2;
#X text 868 144 5;
#X text 868 164 6;
#X floatatom 839 352 5 0 0 0 - - - 0;
#X listbox 32 441 23 0 0 2 Note\ Group - - 0;
#X text 59 169 F;
#X text 59 189 F#/Gb;
#X text 59 209 G;
#X text 59 229 G#/Ab;
#X text 59 249 A;
#X text 59 269 A#/Bb;
#X text 207 69 C;
#X text 207 89 C#/Db;
#X text 207 109 D;
#X text 207 129 D#/Eb;
#X text 207 149 E;
#X text 207 289 B;
#X text 207 169 F;
#X text 207 189 F#/Gb;
#X text 207 209 G;
#X text 207 229 G#/Ab;
#X text 207 249 A;
#X text 207 269 A#/Bb;
#X text 351 70 C;
#X text 351 90 C#/Db;
#X text 351 110 D;
#X text 351 130 D#/Eb;
#X text 351 150 E;
#X text 351 290 B;
#X text 351 170 F;
#X text 351 190 F#/Gb;
#X text 351 210 G;
#X text 351 230 G#/Ab;
#X text 351 250 A;
#X text 351 270 A#/Bb;
#X text 497 68 C;
#X text 497 88 C#/Db;
#X text 497 108 D;
#X text 497 128 D#/Eb;
#X text 497 148 E;
#X text 497 288 B;
#X text 497 168 F;
#X text 497 188 F#/Gb;
#X text 497 208 G;
#X text 497 228 G#/Ab;
#X text 497 248 A;
#X text 497 268 A#/Bb;
#X text 647 66 C;
#X text 647 86 C#/Db;
#X text 647 106 D;
#X text 647 126 D#/Eb;
#X text 647 146 E;
#X text 647 286 B;
#X text 647 166 F;
#X text 647 186 F#/Gb;
#X text 647 206 G;
#X text 647 226 G#/Ab;
#X text 647 246 A;
#X text 647 266 A#/Bb;
#X text 788 63 C;
#X text 788 83 C#/Db;
#X text 788 103 D;
#X text 788 123 D#/Eb;
#X text 788 143 E;
#X text 788 283 B;
#X text 788 163 F;
#X text 788 183 F#/Gb;
#X text 788 203 G;
#X text 788 223 G#/Ab;
#X text 788 243 A;
#X text 788 263 A#/Bb;
#N canvas 392 140 1116 682 calculateNote 0;
#N canvas 1288 562 450 300 getNote 0;
#X obj 62 25 inlet;
#X obj 117 25 inlet;
#X obj 117 90 * 12;
#X obj 117 160 +;
#X obj 117 205 outlet;
#X obj 117 55 + 3;
#X connect 0 0 3 1;
#X connect 1 0 5 0;
#X connect 2 0 3 0;
#X connect 3 0 4 0;
#X connect 5 0 2 0;
#X restore 16 163 pd getNote;
#X floatatom 16 208 5 0 0 0 - - - 0;
#N canvas 1288 562 450 300 getNote 0;
#X obj 62 25 inlet;
#X obj 117 25 inlet;
#X obj 117 90 * 12;
#X obj 117 160 +;
#X obj 117 205 outlet;
#X obj 117 55 + 3;
#X connect 0 0 3 1;
#X connect 1 0 5 0;
#X connect 2 0 3 0;
#X connect 3 0 4 0;
#X connect 5 0 2 0;
#X restore 164 161 pd getNote;
#X floatatom 164 208 5 0 0 0 - - - 0;
#N canvas 1288 562 450 300 getNote 0;
#X obj 62 25 inlet;
#X obj 117 25 inlet;
#X obj 117 90 * 12;
#X obj 117 160 +;
#X obj 117 205 outlet;
#X obj 117 55 + 3;
#X connect 0 0 3 1;
#X connect 1 0 5 0;
#X connect 2 0 3 0;
#X connect 3 0 4 0;
#X connect 5 0 2 0;
#X restore 309 161 pd getNote;
#X floatatom 309 209 5 0 0 0 - - - 0;
#N canvas 1288 562 450 300 getNote 0;
#X obj 62 25 inlet;
#X obj 117 25 inlet;
#X obj 117 90 * 12;
#X obj 117 160 +;
#X obj 117 205 outlet;
#X obj 117 55 + 3;
#X connect 0 0 3 1;
#X connect 1 0 5 0;
#X connect 2 0 3 0;
#X connect 3 0 4 0;
#X connect 5 0 2 0;
#X restore 453 165 pd getNote;
#X floatatom 453 209 5 0 0 0 - - - 0;
#N canvas 1288 562 450 300 getNote 0;
#X obj 62 25 inlet;
#X obj 117 25 inlet;
#X obj 117 90 * 12;
#X obj 117 160 +;
#X obj 117 205 outlet;
#X obj 117 55 + 3;
#X connect 0 0 3 1;
#X connect 1 0 5 0;
#X connect 2 0 3 0;
#X connect 3 0 4 0;
#X connect 5 0 2 0;
#X restore 604 162 pd getNote;
#X floatatom 604 207 5 0 0 0 - - - 0;
#N canvas 1288 562 450 300 getNote 0;
#X obj 62 25 inlet;
#X obj 117 25 inlet;
#X obj 117 90 * 12;
#X obj 117 160 +;
#X obj 117 205 outlet;
#X obj 117 55 + 3;
#X connect 0 0 3 1;
#X connect 1 0 5 0;
#X connect 2 0 3 0;
#X connect 3 0 4 0;
#X connect 5 0 2 0;
#X restore 744 162 pd getNote;
#X floatatom 744 207 5 0 0 0 - - - 0;
#X obj 16 238 t b f;
#X obj 164 238 t b f;
#X obj 309 240 t b f;
#X obj 453 239 t b f;
#X obj 604 236 t b f;
#X obj 744 236 t b f;
#X obj 16 94 inlet;
#X obj 69 93 inlet;
#X obj 159 95 inlet;
#X obj 212 94 inlet;
#X obj 309 96 inlet;
#X obj 362 95 inlet;
#X obj 446 94 inlet;
#X obj 499 93 inlet;
#X obj 604 97 inlet;
#X obj 657 96 inlet;
#X obj 744 99 inlet;
#X obj 797 98 inlet;
#X obj 16 386 outlet;
#X obj 16 336 pack 0 0 0 0 0 0 0, f 109;
#X connect 0 0 1 0;
#X connect 1 0 12 0;
#X connect 2 0 3 0;
#X connect 3 0 13 0;
#X connect 4 0 5 0;
#X connect 5 0 14 0;
#X connect 6 0 7 0;
#X connect 7 0 15 0;
#X connect 8 0 9 0;
#X connect 9 0 16 0;
#X connect 10 0 11 0;
#X connect 11 0 17 0;
#X connect 12 0 31 0;
#X connect 12 1 31 1;
#X connect 13 0 31 0;
#X connect 13 1 31 2;
#X connect 14 0 31 0;
#X connect 14 1 31 3;
#X connect 15 0 31 0;
#X connect 15 1 31 4;
#X connect 16 0 31 0;
#X connect 16 1 31 5;
#X connect 17 0 31 0;
#X connect 17 1 31 6;
#X connect 18 0 0 0;
#X connect 19 0 0 1;
#X connect 20 0 2 0;
#X connect 21 0 2 1;
#X connect 22 0 4 0;
#X connect 23 0 4 1;
#X connect 24 0 6 0;
#X connect 25 0 6 1;
#X connect 26 0 8 0;
#X connect 27 0 8 1;
#X connect 28 0 10 0;
#X connect 29 0 10 1;
#X connect 31 0 30 0;
#X restore 31 401 pd calculateNote;
#X f 49;
#X obj 32 551 noteout;
#X obj 102 552 receive chnl;
#X obj 32 517 makenote 1 1000;
#X obj 60 18 [ A2 ];
#X obj 208 19 [ A1 ];
#X obj 352 19 [ B2 ];
#X obj 500 20 [ B1 ];
#X obj 645 21 [ C2 ];
#X obj 793 22 [ C1 ];
#X msg 32 477 \$1 \, \$2 \, \$3 \, \$4 \, \$5 \, \$6 \, \$7 \, 6;
#X obj 487 507 [ Spacial Chord 6 ];
#X connect 0 0 1 0;
#X connect 1 0 133 0;
#X connect 8 0 15 0;
#X connect 15 0 133 1;
#X connect 16 0 17 0;
#X connect 17 0 133 2;
#X connect 18 0 25 0;
#X connect 25 0 133 3;
#X connect 26 0 27 0;
#X connect 27 0 133 4;
#X connect 28 0 35 0;
#X connect 35 0 133 5;
#X connect 36 0 37 0;
#X connect 37 0 133 6;
#X connect 38 0 45 0;
#X connect 45 0 133 7;
#X connect 46 0 47 0;
#X connect 47 0 133 8;
#X connect 48 0 55 0;
#X connect 55 0 133 9;
#X connect 56 0 57 0;
#X connect 57 0 133 10;
#X connect 58 0 65 0;
#X connect 65 0 133 11;
#X connect 66 0 143 0;
#X connect 133 0 66 0;
#X connect 135 0 134 2;
#X connect 136 0 134 0;
#X connect 136 1 134 1;
#X connect 143 0 136 0;
#X restore 409 152 pd Setup Spacial Chord 6;
#N canvas 588 217 912 618 Setup 0;
#X obj 31 76 vradio 20 1 1 12 empty empty Root 0 -10 0 12 #606060 #00ff04 #0f4710 1;
#X floatatom 31 360 5 0 0 0 - - - 0;
#X text 59 75 C;
#X text 59 95 C#/Db;
#X text 59 115 D;
#X text 59 135 D#/Eb;
#X text 59 155 E;
#X text 59 295 B;
#X obj 110 74 vradio 20 1 1 6 empty empty Octave 0 -10 0 12 #606060 #00ff04 #000000 3;
#X text 138 116 3;
#X text 138 136 4;
#X text 139 73 1;
#X text 138 96 2;
#X text 139 155 5;
#X text 139 175 6;
#X floatatom 110 360 5 0 0 0 - - - 0;
#X obj 179 75 vradio 20 1 1 12 empty empty Root 0 -10 0 12 #606060 #00ff04 #000000 4;
#X floatatom 179 358 5 0 0 0 - - - 0;
#X obj 258 75 vradio 20 1 1 6 empty empty Octave 0 -10 0 12 #606060 #00ff04 #000000 3;
#X text 286 117 3;
#X text 286 137 4;
#X text 287 74 1;
#X text 286 97 2;
#X text 287 156 5;
#X text 287 176 6;
#X floatatom 258 358 5 0 0 0 - - - 0;
#X obj 324 75 vradio 20 1 1 12 empty empty Root 0 -10 0 12 #606060 #00ff04 #000000 3;
#X floatatom 324 359 5 0 0 0 - - - 0;
#X obj 402 75 vradio 20 1 1 6 empty empty Octave 0 -10 0 12 #606060 #00ff04 #000000 4;
#X text 430 117 3;
#X text 430 137 4;
#X text 431 74 1;
#X text 430 97 2;
#X text 431 156 5;
#X text 431 176 6;
#X floatatom 402 359 5 0 0 0 - - - 0;
#X obj 468 74 vradio 20 1 1 12 empty empty Root 0 -10 0 12 #606060 #00ff04 #000000 4;
#X floatatom 468 358 5 0 0 0 - - - 0;
#X obj 546 72 vradio 20 1 1 6 empty empty Octave 0 -10 0 12 #606060 #00ff04 #000000 3;
#X text 574 114 3;
#X text 574 134 4;
#X text 575 71 1;
#X text 574 94 2;
#X text 575 153 5;
#X text 575 173 6;
#X floatatom 546 356 5 0 0 0 - - - 0;
#X obj 619 71 vradio 20 1 1 12 empty empty Root 0 -10 0 12 #606060 #00ff04 #000000 6;
#X floatatom 619 355 5 0 0 0 - - - 0;
#X obj 695 69 vradio 20 1 1 6 empty empty Octave 0 -10 0 12 #606060 #00ff04 #000000 2;
#X text 723 111 3;
#X text 723 131 4;
#X text 724 68 1;
#X text 723 91 2;
#X text 724 150 5;
#X text 724 170 6;
#X floatatom 695 356 5 0 0 0 - - - 0;
#X obj 759 70 vradio 20 1 1 12 empty empty Root 0 -10 0 12 #606060 #00ff04 #000000 4;
#X floatatom 760 355 5 0 0 0 - - - 0;
#X obj 839 69 vradio 20 1 1 6 empty empty Octave 0 -10 0 12 #606060 #00ff04 #000000 3;
#X text 867 111 3;
#X text 867 131 4;
#X text 868 68 1;
#X text 867 91 2;
#X text 868 150 5;
#X text 868 170 6;
#X floatatom 839 358 5 0 0 0 - - - 0;
#X listbox 32 447 23 0 0 2 Note\ Group - - 0;
#X text 59 175 F;
#X text 59 195 F#/Gb;
#X text 59 215 G;
#X text 59 235 G#/Ab;
#X text 59 255 A;
#X text 59 275 A#/Bb;
#X text 207 75 C;
#X text 207 95 C#/Db;
#X text 207 115 D;
#X text 207 135 D#/Eb;
#X text 207 155 E;
#X text 207 295 B;
#X text 207 175 F;
#X text 207 195 F#/Gb;
#X text 207 215 G;
#X text 207 235 G#/Ab;
#X text 207 255 A;
#X text 207 275 A#/Bb;
#X text 351 76 C;
#X text 351 96 C#/Db;
#X text 351 116 D;
#X text 351 136 D#/Eb;
#X text 351 156 E;
#X text 351 296 B;
#X text 351 176 F;
#X text 351 196 F#/Gb;
#X text 351 216 G;
#X text 351 236 G#/Ab;
#X text 351 256 A;
#X text 351 276 A#/Bb;
#X text 497 74 C;
#X text 497 94 C#/Db;
#X text 497 114 D;
#X text 497 134 D#/Eb;
#X text 497 154 E;
#X text 497 294 B;
#X text 497 174 F;
#X text 497 194 F#/Gb;
#X text 497 214 G;
#X text 497 234 G#/Ab;
#X text 497 254 A;
#X text 497 274 A#/Bb;
#X text 647 72 C;
#X text 647 92 C#/Db;
#X text 647 112 D;
#X text 647 132 D#/Eb;
#X text 647 152 E;
#X text 647 292 B;
#X text 647 172 F;
#X text 647 192 F#/Gb;
#X text 647 212 G;
#X text 647 232 G#/Ab;
#X text 647 252 A;
#X text 647 272 A#/Bb;
#X text 788 69 C;
#X text 788 89 C#/Db;
#X text 788 109 D;
#X text 788 129 D#/Eb;
#X text 788 149 E;
#X text 788 289 B;
#X text 788 169 F;
#X text 788 189 F#/Gb;
#X text 788 209 G;
#X text 788 229 G#/Ab;
#X text 788 249 A;
#X text 788 269 A#/Bb;
#N canvas 392 140 1116 682 calculateNote 0;
#N canvas 1288 562 450 300 getNote 0;
#X obj 62 25 inlet;
#X obj 117 25 inlet;
#X obj 117 90 * 12;
#X obj 117 160 +;
#X obj 117 205 outlet;
#X obj 117 55 + 3;
#X connect 0 0 3 1;
#X connect 1 0 5 0;
#X connect 2 0 3 0;
#X connect 3 0 4 0;
#X connect 5 0 2 0;
#X restore 16 163 pd getNote;
#X floatatom 16 208 5 0 0 0 - - - 0;
#N canvas 1288 562 450 300 getNote 0;
#X obj 62 25 inlet;
#X obj 117 25 inlet;
#X obj 117 90 * 12;
#X obj 117 160 +;
#X obj 117 205 outlet;
#X obj 117 55 + 3;
#X connect 0 0 3 1;
#X connect 1 0 5 0;
#X connect 2 0 3 0;
#X connect 3 0 4 0;
#X connect 5 0 2 0;
#X restore 164 161 pd getNote;
#X floatatom 164 208 5 0 0 0 - - - 0;
#N canvas 1288 562 450 300 getNote 0;
#X obj 62 25 inlet;
#X obj 117 25 inlet;
#X obj 117 90 * 12;
#X obj 117 160 +;
#X obj 117 205 outlet;
#X obj 117 55 + 3;
#X connect 0 0 3 1;
#X connect 1 0 5 0;
#X connect 2 0 3 0;
#X connect 3 0 4 0;
#X connect 5 0 2 0;
#X restore 309 161 pd getNote;
#X floatatom 309 209 5 0 0 0 - - - 0;
#N canvas 1288 562 450 300 getNote 0;
#X obj 62 25 inlet;
#X obj 117 25 inlet;
#X obj 117 90 * 12;
#X obj 117 160 +;
#X obj 117 205 outlet;
#X obj 117 55 + 3;
#X connect 0 0 3 1;
#X connect 1 0 5 0;
#X connect 2 0 3 0;
#X connect 3 0 4 0;
#X connect 5 0 2 0;
#X restore 453 165 pd getNote;
#X floatatom 453 209 5 0 0 0 - - - 0;
#N canvas 1288 562 450 300 getNote 0;
#X obj 62 25 inlet;
#X obj 117 25 inlet;
#X obj 117 90 * 12;
#X obj 117 160 +;
#X obj 117 205 outlet;
#X obj 117 55 + 3;
#X connect 0 0 3 1;
#X connect 1 0 5 0;
#X connect 2 0 3 0;
#X connect 3 0 4 0;
#X connect 5 0 2 0;
#X restore 604 162 pd getNote;
#X floatatom 604 207 5 0 0 0 - - - 0;
#N canvas 1288 562 450 300 getNote 0;
#X obj 62 25 inlet;
#X obj 117 25 inlet;
#X obj 117 90 * 12;
#X obj 117 160 +;
#X obj 117 205 outlet;
#X obj 117 55 + 3;
#X connect 0 0 3 1;
#X connect 1 0 5 0;
#X connect 2 0 3 0;
#X connect 3 0 4 0;
#X connect 5 0 2 0;
#X restore 744 162 pd getNote;
#X floatatom 744 207 5 0 0 0 - - - 0;
#X obj 16 238 t b f;
#X obj 164 238 t b f;
#X obj 309 240 t b f;
#X obj 453 239 t b f;
#X obj 604 236 t b f;
#X obj 744 236 t b f;
#X obj 16 94 inlet;
#X obj 69 93 inlet;
#X obj 159 95 inlet;
#X obj 212 94 inlet;
#X obj 309 96 inlet;
#X obj 362 95 inlet;
#X obj 446 94 inlet;
#X obj 499 93 inlet;
#X obj 604 97 inlet;
#X obj 657 96 inlet;
#X obj 744 99 inlet;
#X obj 797 98 inlet;
#X obj 16 386 outlet;
#X obj 16 336 pack 0 0 0 0 0 0 0, f 109;
#X connect 0 0 1 0;
#X connect 1 0 12 0;
#X connect 2 0 3 0;
#X connect 3 0 13 0;
#X connect 4 0 5 0;
#X connect 5 0 14 0;
#X connect 6 0 7 0;
#X connect 7 0 15 0;
#X connect 8 0 9 0;
#X connect 9 0 16 0;
#X connect 10 0 11 0;
#X connect 11 0 17 0;
#X connect 12 0 31 0;
#X connect 12 1 31 1;
#X connect 13 0 31 0;
#X connect 13 1 31 2;
#X connect 14 0 31 0;
#X connect 14 1 31 3;
#X connect 15 0 31 0;
#X connect 15 1 31 4;
#X connect 16 0 31 0;
#X connect 16 1 31 5;
#X connect 17 0 31 0;
#X connect 17 1 31 6;
#X connect 18 0 0 0;
#X connect 19 0 0 1;
#X connect 20 0 2 0;
#X connect 21 0 2 1;
#X connect 22 0 4 0;
#X connect 23 0 4 1;
#X connect 24 0 6 0;
#X connect 25 0 6 1;
#X connect 26 0 8 0;
#X connect 27 0 8 1;
#X connect 28 0 10 0;
#X connect 29 0 10 1;
#X connect 31 0 30 0;
#X restore 31 407 pd calculateNote;
#X f 49;
#X obj 32 557 noteout;
#X obj 102 558 receive chnl;
#X obj 32 523 makenote 1 1000;
#X obj 60 24 [ A2 ];
#X obj 208 25 [ A1 ];
#X obj 352 25 [ B2 ];
#X obj 500 26 [ B1 ];
#X obj 645 27 [ C2 ];
#X obj 793 28 [ C1 ];
#X msg 32 483 \$1 \, \$2 \, \$3 \, \$4 \, \$5 \, \$6 \, \$7 \, 7;
#X obj 487 513 [ Spacial Chord 7 ];
#X connect 0 0 1 0;
#X connect 1 0 133 0;
#X connect 8 0 15 0;
#X connect 15 0 133 1;
#X connect 16 0 17 0;
#X connect 17 0 133 2;
#X connect 18 0 25 0;
#X connect 25 0 133 3;
#X connect 26 0 27 0;
#X connect 27 0 133 4;
#X connect 28 0 35 0;
#X connect 35 0 133 5;
#X connect 36 0 37 0;
#X connect 37 0 133 6;
#X connect 38 0 45 0;
#X connect 45 0 133 7;
#X connect 46 0 47 0;
#X connect 47 0 133 8;
#X connect 48 0 55 0;
#X connect 55 0 133 9;
#X connect 56 0 57 0;
#X connect 57 0 133 10;
#X connect 58 0 65 0;
#X connect 65 0 133 11;
#X connect 66 0 143 0;
#X connect 133 0 66 0;
#X connect 135 0 134 2;
#X connect 136 0 134 0;
#X connect 136 1 134 1;
#X connect 143 0 136 0;
#X restore 20 232 pd Setup Spacial Chord 7;
#N canvas 510 120 912 621 Setup 0;
#X obj 30 71 vradio 20 1 1 12 empty empty Root 0 -10 0 12 #606060 #00ff04 #0f4710 4;
#X floatatom 30 355 5 0 0 0 - - - 0;
#X text 58 70 C;
#X text 58 90 C#/Db;
#X text 58 110 D;
#X text 58 130 D#/Eb;
#X text 58 150 E;
#X text 58 290 B;
#X obj 109 69 vradio 20 1 1 6 empty empty Octave 0 -10 0 12 #606060 #00ff04 #000000 4;
#X text 137 111 3;
#X text 137 131 4;
#X text 138 68 1;
#X text 137 91 2;
#X text 138 150 5;
#X text 138 170 6;
#X floatatom 109 355 5 0 0 0 - - - 0;
#X obj 178 69 vradio 20 1 1 12 empty empty Root 0 -10 0 12 #606060 #00ff04 #000000 6;
#X floatatom 178 353 5 0 0 0 - - - 0;
#X obj 257 70 vradio 20 1 1 6 empty empty Octave 0 -10 0 12 #606060 #00ff04 #000000 3;
#X text 285 112 3;
#X text 285 132 4;
#X text 286 69 1;
#X text 285 92 2;
#X text 286 151 5;
#X text 286 171 6;
#X floatatom 257 353 5 0 0 0 - - - 0;
#X obj 323 70 vradio 20 1 1 12 empty empty Root 0 -10 0 12 #606060 #00ff04 #000000 1;
#X floatatom 323 354 5 0 0 0 - - - 0;
#X obj 401 70 vradio 20 1 1 6 empty empty Octave 0 -10 0 12 #606060 #00ff04 #000000 4;
#X text 429 112 3;
#X text 429 132 4;
#X text 430 69 1;
#X text 429 92 2;
#X text 430 151 5;
#X text 430 171 6;
#X floatatom 401 354 5 0 0 0 - - - 0;
#X obj 467 69 vradio 20 1 1 12 empty empty Root 0 -10 0 12 #606060 #00ff04 #000000 4;
#X floatatom 467 353 5 0 0 0 - - - 0;
#X obj 545 67 vradio 20 1 1 6 empty empty Octave 0 -10 0 12 #606060 #00ff04 #000000 4;
#X text 573 109 3;
#X text 573 129 4;
#X text 574 66 1;
#X text 573 89 2;
#X text 574 148 5;
#X text 574 168 6;
#X floatatom 545 351 5 0 0 0 - - - 0;
#X obj 618 66 vradio 20 1 1 12 empty empty Root 0 -10 0 12 #606060 #00ff04 #000000 2;
#X floatatom 618 350 5 0 0 0 - - - 0;
#X obj 694 64 vradio 20 1 1 6 empty empty Octave 0 -10 0 12 #606060 #00ff04 #000000 3;
#X text 722 106 3;
#X text 722 126 4;
#X text 723 63 1;
#X text 722 86 2;
#X text 723 145 5;
#X text 723 165 6;
#X floatatom 694 351 5 0 0 0 - - - 0;
#X obj 758 65 vradio 20 1 1 12 empty empty Root 0 -10 0 12 #606060 #00ff04 #000000 4;
#X floatatom 759 350 5 0 0 0 - - - 0;
#X obj 838 64 vradio 20 1 1 6 empty empty Octave 0 -10 0 12 #606060 #00ff04 #000000 1;
#X text 866 106 3;
#X text 866 126 4;
#X text 867 63 1;
#X text 866 86 2;
#X text 867 145 5;
#X text 867 165 6;
#X floatatom 838 353 5 0 0 0 - - - 0;
#X listbox 31 442 23 0 0 2 Note\ Group - - 0;
#X text 58 170 F;
#X text 58 190 F#/Gb;
#X text 58 210 G;
#X text 58 230 G#/Ab;
#X text 58 250 A;
#X text 58 270 A#/Bb;
#X text 206 70 C;
#X text 206 90 C#/Db;
#X text 206 110 D;
#X text 206 130 D#/Eb;
#X text 206 150 E;
#X text 206 290 B;
#X text 206 170 F;
#X text 206 190 F#/Gb;
#X text 206 210 G;
#X text 206 230 G#/Ab;
#X text 206 250 A;
#X text 206 270 A#/Bb;
#X text 350 71 C;
#X text 350 91 C#/Db;
#X text 350 111 D;
#X text 350 131 D#/Eb;
#X text 350 151 E;
#X text 350 291 B;
#X text 350 171 F;
#X text 350 191 F#/Gb;
#X text 350 211 G;
#X text 350 231 G#/Ab;
#X text 350 251 A;
#X text 350 271 A#/Bb;
#X text 496 69 C;
#X text 496 89 C#/Db;
#X text 496 109 D;
#X text 496 129 D#/Eb;
#X text 496 149 E;
#X text 496 289 B;
#X text 496 169 F;
#X text 496 189 F#/Gb;
#X text 496 209 G;
#X text 496 229 G#/Ab;
#X text 496 249 A;
#X text 496 269 A#/Bb;
#X text 646 67 C;
#X text 646 87 C#/Db;
#X text 646 107 D;
#X text 646 127 D#/Eb;
#X text 646 147 E;
#X text 646 287 B;
#X text 646 167 F;
#X text 646 187 F#/Gb;
#X text 646 207 G;
#X text 646 227 G#/Ab;
#X text 646 247 A;
#X text 646 267 A#/Bb;
#X text 787 64 C;
#X text 787 84 C#/Db;
#X text 787 104 D;
#X text 787 124 D#/Eb;
#X text 787 144 E;
#X text 787 284 B;
#X text 787 164 F;
#X text 787 184 F#/Gb;
#X text 787 204 G;
#X text 787 224 G#/Ab;
#X text 787 244 A;
#X text 787 264 A#/Bb;
#N canvas 392 140 1116 682 calculateNote 0;
#N canvas 1288 562 450 300 getNote 0;
#X obj 62 25 inlet;
#X obj 117 25 inlet;
#X obj 117 90 * 12;
#X obj 117 160 +;
#X obj 117 205 outlet;
#X obj 117 55 + 3;
#X connect 0 0 3 1;
#X connect 1 0 5 0;
#X connect 2 0 3 0;
#X connect 3 0 4 0;
#X connect 5 0 2 0;
#X restore 16 163 pd getNote;
#X floatatom 16 208 5 0 0 0 - - - 0;
#N canvas 1288 562 450 300 getNote 0;
#X obj 62 25 inlet;
#X obj 117 25 inlet;
#X obj 117 90 * 12;
#X obj 117 160 +;
#X obj 117 205 outlet;
#X obj 117 55 + 3;
#X connect 0 0 3 1;
#X connect 1 0 5 0;
#X connect 2 0 3 0;
#X connect 3 0 4 0;
#X connect 5 0 2 0;
#X restore 164 161 pd getNote;
#X floatatom 164 208 5 0 0 0 - - - 0;
#N canvas 1288 562 450 300 getNote 0;
#X obj 62 25 inlet;
#X obj 117 25 inlet;
#X obj 117 90 * 12;
#X obj 117 160 +;
#X obj 117 205 outlet;
#X obj 117 55 + 3;
#X connect 0 0 3 1;
#X connect 1 0 5 0;
#X connect 2 0 3 0;
#X connect 3 0 4 0;
#X connect 5 0 2 0;
#X restore 309 161 pd getNote;
#X floatatom 309 209 5 0 0 0 - - - 0;
#N canvas 1288 562 450 300 getNote 0;
#X obj 62 25 inlet;
#X obj 117 25 inlet;
#X obj 117 90 * 12;
#X obj 117 160 +;
#X obj 117 205 outlet;
#X obj 117 55 + 3;
#X connect 0 0 3 1;
#X connect 1 0 5 0;
#X connect 2 0 3 0;
#X connect 3 0 4 0;
#X connect 5 0 2 0;
#X restore 453 165 pd getNote;
#X floatatom 453 209 5 0 0 0 - - - 0;
#N canvas 1288 562 450 300 getNote 0;
#X obj 62 25 inlet;
#X obj 117 25 inlet;
#X obj 117 90 * 12;
#X obj 117 160 +;
#X obj 117 205 outlet;
#X obj 117 55 + 3;
#X connect 0 0 3 1;
#X connect 1 0 5 0;
#X connect 2 0 3 0;
#X connect 3 0 4 0;
#X connect 5 0 2 0;
#X restore 604 162 pd getNote;
#X floatatom 604 207 5 0 0 0 - - - 0;
#N canvas 1288 562 450 300 getNote 0;
#X obj 62 25 inlet;
#X obj 117 25 inlet;
#X obj 117 90 * 12;
#X obj 117 160 +;
#X obj 117 205 outlet;
#X obj 117 55 + 3;
#X connect 0 0 3 1;
#X connect 1 0 5 0;
#X connect 2 0 3 0;
#X connect 3 0 4 0;
#X connect 5 0 2 0;
#X restore 744 162 pd getNote;
#X floatatom 744 207 5 0 0 0 - - - 0;
#X obj 16 238 t b f;
#X obj 164 238 t b f;
#X obj 309 240 t b f;
#X obj 453 239 t b f;
#X obj 604 236 t b f;
#X obj 744 236 t b f;
#X obj 16 94 inlet;
#X obj 69 93 inlet;
#X obj 159 95 inlet;
#X obj 212 94 inlet;
#X obj 309 96 inlet;
#X obj 362 95 inlet;
#X obj 446 94 inlet;
#X obj 499 93 inlet;
#X obj 604 97 inlet;
#X obj 657 96 inlet;
#X obj 744 99 inlet;
#X obj 797 98 inlet;
#X obj 16 386 outlet;
#X obj 16 336 pack 0 0 0 0 0 0 0, f 109;
#X connect 0 0 1 0;
#X connect 1 0 12 0;
#X connect 2 0 3 0;
#X connect 3 0 13 0;
#X connect 4 0 5 0;
#X connect 5 0 14 0;
#X connect 6 0 7 0;
#X connect 7 0 15 0;
#X connect 8 0 9 0;
#X connect 9 0 16 0;
#X connect 10 0 11 0;
#X connect 11 0 17 0;
#X connect 12 0 31 0;
#X connect 12 1 31 1;
#X connect 13 0 31 0;
#X connect 13 1 31 2;
#X connect 14 0 31 0;
#X connect 14 1 31 3;
#X connect 15 0 31 0;
#X connect 15 1 31 4;
#X connect 16 0 31 0;
#X connect 16 1 31 5;
#X connect 17 0 31 0;
#X connect 17 1 31 6;
#X connect 18 0 0 0;
#X connect 19 0 0 1;
#X connect 20 0 2 0;
#X connect 21 0 2 1;
#X connect 22 0 4 0;
#X connect 23 0 4 1;
#X connect 24 0 6 0;
#X connect 25 0 6 1;
#X connect 26 0 8 0;
#X connect 27 0 8 1;
#X connect 28 0 10 0;
#X connect 29 0 10 1;
#X connect 31 0 30 0;
#X restore 30 402 pd calculateNote;
#X f 49;
#X obj 31 552 noteout;
#X obj 101 553 receive chnl;
#X obj 31 518 makenote 1 1000;
#X obj 59 19 [ A2 ];
#X obj 207 20 [ A1 ];
#X obj 351 20 [ B2 ];
#X obj 499 21 [ B1 ];
#X obj 644 22 [ C2 ];
#X obj 792 23 [ C1 ];
#X msg 31 478 \$1 \, \$2 \, \$3 \, \$4 \, \$5 \, \$6 \, \$7 \, 8;
#X obj 486 508 [ Spacial Chord 8 ];
#X connect 0 0 1 0;
#X connect 1 0 133 0;
#X connect 8 0 15 0;
#X connect 15 0 133 1;
#X connect 16 0 17 0;
#X connect 17 0 133 2;
#X connect 18 0 25 0;
#X connect 25 0 133 3;
#X connect 26 0 27 0;
#X connect 27 0 133 4;
#X connect 28 0 35 0;
#X connect 35 0 133 5;
#X connect 36 0 37 0;
#X connect 37 0 133 6;
#X connect 38 0 45 0;
#X connect 45 0 133 7;
#X connect 46 0 47 0;
#X connect 47 0 133 8;
#X connect 48 0 55 0;
#X connect 55 0 133 9;
#X connect 56 0 57 0;
#X connect 57 0 133 10;
#X connect 58 0 65 0;
#X connect 65 0 133 11;
#X connect 66 0 143 0;
#X connect 133 0 66 0;
#X connect 135 0 134 2;
#X connect 136 0 134 0;
#X connect 136 1 134 1;
#X connect 143 0 136 0;
#X restore 216 234 pd Setup Spacial Chord 8;
#N canvas 767 116 912 656 Setup 0;
#X obj 35 86 vradio 20 1 1 12 empty empty Root 0 -10 0 12 #606060 #00ff04 #0f4710 4;
#X floatatom 35 370 5 0 0 0 - - - 0;
#X text 63 85 C;
#X text 63 105 C#/Db;
#X text 63 125 D;
#X text 63 145 D#/Eb;
#X text 63 165 E;
#X text 63 305 B;
#X obj 114 84 vradio 20 1 1 6 empty empty Octave 0 -10 0 12 #606060 #00ff04 #000000 3;
#X text 142 126 3;
#X text 142 146 4;
#X text 143 83 1;
#X text 142 106 2;
#X text 143 165 5;
#X text 143 185 6;
#X floatatom 114 370 5 0 0 0 - - - 0;
#X obj 183 84 vradio 20 1 1 12 empty empty Root 0 -10 0 12 #606060 #00ff04 #000000 6;
#X floatatom 183 368 5 0 0 0 - - - 0;
#X obj 262 85 vradio 20 1 1 6 empty empty Octave 0 -10 0 12 #606060 #00ff04 #000000 4;
#X text 290 127 3;
#X text 290 147 4;
#X text 291 84 1;
#X text 290 107 2;
#X text 291 166 5;
#X text 291 186 6;
#X floatatom 262 368 5 0 0 0 - - - 0;
#X obj 328 85 vradio 20 1 1 12 empty empty Root 0 -10 0 12 #606060 #00ff04 #000000 6;
#X floatatom 328 369 5 0 0 0 - - - 0;
#X obj 406 85 vradio 20 1 1 6 empty empty Octave 0 -10 0 12 #606060 #00ff04 #000000 4;
#X text 434 127 3;
#X text 434 147 4;
#X text 435 84 1;
#X text 434 107 2;
#X text 435 166 5;
#X text 435 186 6;
#X floatatom 406 369 5 0 0 0 - - - 0;
#X obj 472 84 vradio 20 1 1 12 empty empty Root 0 -10 0 12 #606060 #00ff04 #000000 4;
#X floatatom 472 368 5 0 0 0 - - - 0;
#X obj 550 82 vradio 20 1 1 6 empty empty Octave 0 -10 0 12 #606060 #00ff04 #000000 3;
#X text 578 124 3;
#X text 578 144 4;
#X text 579 81 1;
#X text 578 104 2;
#X text 579 163 5;
#X text 579 183 6;
#X floatatom 550 366 5 0 0 0 - - - 0;
#X obj 623 81 vradio 20 1 1 12 empty empty Root 0 -10 0 12 #606060 #00ff04 #000000 2;
#X floatatom 623 365 5 0 0 0 - - - 0;
#X obj 699 79 vradio 20 1 1 6 empty empty Octave 0 -10 0 12 #606060 #00ff04 #000000 3;
#X text 727 121 3;
#X text 727 141 4;
#X text 728 78 1;
#X text 727 101 2;
#X text 728 160 5;
#X text 728 180 6;
#X floatatom 699 366 5 0 0 0 - - - 0;
#X obj 763 80 vradio 20 1 1 12 empty empty Root 0 -10 0 12 #606060 #00ff04 #000000 4;
#X floatatom 764 365 5 0 0 0 - - - 0;
#X obj 843 79 vradio 20 1 1 6 empty empty Octave 0 -10 0 12 #606060 #00ff04 #000000 1;
#X text 871 121 3;
#X text 871 141 4;
#X text 872 78 1;
#X text 871 101 2;
#X text 872 160 5;
#X text 872 180 6;
#X floatatom 843 368 5 0 0 0 - - - 0;
#X listbox 36 457 23 0 0 2 Note\ Group - - 0;
#X text 63 185 F;
#X text 63 205 F#/Gb;
#X text 63 225 G;
#X text 63 245 G#/Ab;
#X text 63 265 A;
#X text 63 285 A#/Bb;
#X text 211 85 C;
#X text 211 105 C#/Db;
#X text 211 125 D;
#X text 211 145 D#/Eb;
#X text 211 165 E;
#X text 211 305 B;
#X text 211 185 F;
#X text 211 205 F#/Gb;
#X text 211 225 G;
#X text 211 245 G#/Ab;
#X text 211 265 A;
#X text 211 285 A#/Bb;
#X text 355 86 C;
#X text 355 106 C#/Db;
#X text 355 126 D;
#X text 355 146 D#/Eb;
#X text 355 166 E;
#X text 355 306 B;
#X text 355 186 F;
#X text 355 206 F#/Gb;
#X text 355 226 G;
#X text 355 246 G#/Ab;
#X text 355 266 A;
#X text 355 286 A#/Bb;
#X text 501 84 C;
#X text 501 104 C#/Db;
#X text 501 124 D;
#X text 501 144 D#/Eb;
#X text 501 164 E;
#X text 501 304 B;
#X text 501 184 F;
#X text 501 204 F#/Gb;
#X text 501 224 G;
#X text 501 244 G#/Ab;
#X text 501 264 A;
#X text 501 284 A#/Bb;
#X text 651 82 C;
#X text 651 102 C#/Db;
#X text 651 122 D;
#X text 651 142 D#/Eb;
#X text 651 162 E;
#X text 651 302 B;
#X text 651 182 F;
#X text 651 202 F#/Gb;
#X text 651 222 G;
#X text 651 242 G#/Ab;
#X text 651 262 A;
#X text 651 282 A#/Bb;
#X text 792 79 C;
#X text 792 99 C#/Db;
#X text 792 119 D;
#X text 792 139 D#/Eb;
#X text 792 159 E;
#X text 792 299 B;
#X text 792 179 F;
#X text 792 199 F#/Gb;
#X text 792 219 G;
#X text 792 239 G#/Ab;
#X text 792 259 A;
#X text 792 279 A#/Bb;
#N canvas 392 140 1116 682 calculateNote 0;
#N canvas 1288 562 450 300 getNote 0;
#X obj 62 25 inlet;
#X obj 117 25 inlet;
#X obj 117 90 * 12;
#X obj 117 160 +;
#X obj 117 205 outlet;
#X obj 117 55 + 3;
#X connect 0 0 3 1;
#X connect 1 0 5 0;
#X connect 2 0 3 0;
#X connect 3 0 4 0;
#X connect 5 0 2 0;
#X restore 16 163 pd getNote;
#X floatatom 16 208 5 0 0 0 - - - 0;
#N canvas 1288 562 450 300 getNote 0;
#X obj 62 25 inlet;
#X obj 117 25 inlet;
#X obj 117 90 * 12;
#X obj 117 160 +;
#X obj 117 205 outlet;
#X obj 117 55 + 3;
#X connect 0 0 3 1;
#X connect 1 0 5 0;
#X connect 2 0 3 0;
#X connect 3 0 4 0;
#X connect 5 0 2 0;
#X restore 164 161 pd getNote;
#X floatatom 164 208 5 0 0 0 - - - 0;
#N canvas 1288 562 450 300 getNote 0;
#X obj 62 25 inlet;
#X obj 117 25 inlet;
#X obj 117 90 * 12;
#X obj 117 160 +;
#X obj 117 205 outlet;
#X obj 117 55 + 3;
#X connect 0 0 3 1;
#X connect 1 0 5 0;
#X connect 2 0 3 0;
#X connect 3 0 4 0;
#X connect 5 0 2 0;
#X restore 309 161 pd getNote;
#X floatatom 309 209 5 0 0 0 - - - 0;
#N canvas 1288 562 450 300 getNote 0;
#X obj 62 25 inlet;
#X obj 117 25 inlet;
#X obj 117 90 * 12;
#X obj 117 160 +;
#X obj 117 205 outlet;
#X obj 117 55 + 3;
#X connect 0 0 3 1;
#X connect 1 0 5 0;
#X connect 2 0 3 0;
#X connect 3 0 4 0;
#X connect 5 0 2 0;
#X restore 453 165 pd getNote;
#X floatatom 453 209 5 0 0 0 - - - 0;
#N canvas 1288 562 450 300 getNote 0;
#X obj 62 25 inlet;
#X obj 117 25 inlet;
#X obj 117 90 * 12;
#X obj 117 160 +;
#X obj 117 205 outlet;
#X obj 117 55 + 3;
#X connect 0 0 3 1;
#X connect 1 0 5 0;
#X connect 2 0 3 0;
#X connect 3 0 4 0;
#X connect 5 0 2 0;
#X restore 604 162 pd getNote;
#X floatatom 604 207 5 0 0 0 - - - 0;
#N canvas 1288 562 450 300 getNote 0;
#X obj 62 25 inlet;
#X obj 117 25 inlet;
#X obj 117 90 * 12;
#X obj 117 160 +;
#X obj 117 205 outlet;
#X obj 117 55 + 3;
#X connect 0 0 3 1;
#X connect 1 0 5 0;
#X connect 2 0 3 0;
#X connect 3 0 4 0;
#X connect 5 0 2 0;
#X restore 744 162 pd getNote;
#X floatatom 744 207 5 0 0 0 - - - 0;
#X obj 16 238 t b f;
#X obj 164 238 t b f;
#X obj 309 240 t b f;
#X obj 453 239 t b f;
#X obj 604 236 t b f;
#X obj 744 236 t b f;
#X obj 16 94 inlet;
#X obj 69 93 inlet;
#X obj 159 95 inlet;
#X obj 212 94 inlet;
#X obj 309 96 inlet;
#X obj 362 95 inlet;
#X obj 446 94 inlet;
#X obj 499 93 inlet;
#X obj 604 97 inlet;
#X obj 657 96 inlet;
#X obj 744 99 inlet;
#X obj 797 98 inlet;
#X obj 16 386 outlet;
#X obj 16 336 pack 0 0 0 0 0 0 0, f 109;
#X connect 0 0 1 0;
#X connect 1 0 12 0;
#X connect 2 0 3 0;
#X connect 3 0 13 0;
#X connect 4 0 5 0;
#X connect 5 0 14 0;
#X connect 6 0 7 0;
#X connect 7 0 15 0;
#X connect 8 0 9 0;
#X connect 9 0 16 0;
#X connect 10 0 11 0;
#X connect 11 0 17 0;
#X connect 12 0 31 0;
#X connect 12 1 31 1;
#X connect 13 0 31 0;
#X connect 13 1 31 2;
#X connect 14 0 31 0;
#X connect 14 1 31 3;
#X connect 15 0 31 0;
#X connect 15 1 31 4;
#X connect 16 0 31 0;
#X connect 16 1 31 5;
#X connect 17 0 31 0;
#X connect 17 1 31 6;
#X connect 18 0 0 0;
#X connect 19 0 0 1;
#X connect 20 0 2 0;
#X connect 21 0 2 1;
#X connect 22 0 4 0;
#X connect 23 0 4 1;
#X connect 24 0 6 0;
#X connect 25 0 6 1;
#X connect 26 0 8 0;
#X connect 27 0 8 1;
#X connect 28 0 10 0;
#X connect 29 0 10 1;
#X connect 31 0 30 0;
#X restore 35 417 pd calculateNote;
#X f 49;
#X obj 36 567 noteout;
#X obj 106 568 receive chnl;
#X obj 36 533 makenote 1 1000;
#X obj 64 34 [ A2 ];
#X obj 212 35 [ A1 ];
#X obj 356 35 [ B2 ];
#X obj 504 36 [ B1 ];
#X obj 649 37 [ C2 ];
#X obj 797 38 [ C1 ];
#X msg 36 493 \$1 \, \$2 \, \$3 \, \$4 \, \$5 \, \$6 \, \$7 \, 9;
#X obj 491 523 [ Spacial Chord 9 ];
#X connect 0 0 1 0;
#X connect 1 0 133 0;
#X connect 8 0 15 0;
#X connect 15 0 133 1;
#X connect 16 0 17 0;
#X connect 17 0 133 2;
#X connect 18 0 25 0;
#X connect 25 0 133 3;
#X connect 26 0 27 0;
#X connect 27 0 133 4;
#X connect 28 0 35 0;
#X connect 35 0 133 5;
#X connect 36 0 37 0;
#X connect 37 0 133 6;
#X connect 38 0 45 0;
#X connect 45 0 133 7;
#X connect 46 0 47 0;
#X connect 47 0 133 8;
#X connect 48 0 55 0;
#X connect 55 0 133 9;
#X connect 56 0 57 0;
#X connect 57 0 133 10;
#X connect 58 0 65 0;
#X connect 65 0 133 11;
#X connect 66 0 143 0;
#X connect 133 0 66 0;
#X connect 135 0 134 2;
#X connect 136 0 134 0;
#X connect 136 1 134 1;
#X connect 143 0 136 0;
#X restore 408 236 pd Setup Spacial Chord 9;
#N canvas 212 123 912 656 Setup 0;
#X obj 563 533 [ Set Voice ] ==> [ Set 6 Osc ];
#X obj 46 81 vradio 20 1 1 12 empty empty Root 0 -10 0 12 #606060 #00ff04 #0f4710 3;
#X floatatom 46 365 5 0 0 0 - - - 0;
#X text 74 80 C;
#X text 74 100 C#/Db;
#X text 74 120 D;
#X text 74 140 D#/Eb;
#X text 74 160 E;
#X text 74 300 B;
#X obj 125 79 vradio 20 1 1 6 empty empty Octave 0 -10 0 12 #606060 #00ff04 #000000 4;
#X text 153 121 3;
#X text 153 141 4;
#X text 154 78 1;
#X text 153 101 2;
#X text 154 160 5;
#X text 154 180 6;
#X floatatom 125 365 5 0 0 0 - - - 0;
#X obj 194 79 vradio 20 1 1 12 empty empty Root 0 -10 0 12 #606060 #00ff04 #000000 3;
#X floatatom 194 363 5 0 0 0 - - - 0;
#X obj 273 80 vradio 20 1 1 6 empty empty Octave 0 -10 0 12 #606060 #00ff04 #000000 4;
#X text 301 122 3;
#X text 301 142 4;
#X text 302 79 1;
#X text 301 102 2;
#X text 302 161 5;
#X text 302 181 6;
#X floatatom 273 363 5 0 0 0 - - - 0;
#X obj 339 80 vradio 20 1 1 12 empty empty Root 0 -10 0 12 #606060 #00ff04 #000000 2;
#X floatatom 339 364 5 0 0 0 - - - 0;
#X obj 417 80 vradio 20 1 1 6 empty empty Octave 0 -10 0 12 #606060 #00ff04 #000000 3;
#X text 445 122 3;
#X text 445 142 4;
#X text 446 79 1;
#X text 445 102 2;
#X text 446 161 5;
#X text 446 181 6;
#X floatatom 417 364 5 0 0 0 - - - 0;
#X obj 483 79 vradio 20 1 1 12 empty empty Root 0 -10 0 12 #606060 #00ff04 #000000 3;
#X floatatom 483 363 5 0 0 0 - - - 0;
#X obj 561 77 vradio 20 1 1 6 empty empty Octave 0 -10 0 12 #606060 #00ff04 #000000 3;
#X text 589 119 3;
#X text 589 139 4;
#X text 590 76 1;
#X text 589 99 2;
#X text 590 158 5;
#X text 590 178 6;
#X floatatom 561 361 5 0 0 0 - - - 0;
#X obj 634 76 vradio 20 1 1 12 empty empty Root 0 -10 0 12 #606060 #00ff04 #000000 2;
#X floatatom 634 360 5 0 0 0 - - - 0;
#X obj 710 74 vradio 20 1 1 6 empty empty Octave 0 -10 0 12 #606060 #00ff04 #000000 3;
#X text 738 116 3;
#X text 738 136 4;
#X text 739 73 1;
#X text 738 96 2;
#X text 739 155 5;
#X text 739 175 6;
#X floatatom 710 361 5 0 0 0 - - - 0;
#X obj 774 75 vradio 20 1 1 12 empty empty Root 0 -10 0 12 #606060 #00ff04 #000000 3;
#X floatatom 775 360 5 0 0 0 - - - 0;
#X obj 854 74 vradio 20 1 1 6 empty empty Octave 0 -10 0 12 #606060 #00ff04 #000000 2;
#X text 882 116 3;
#X text 882 136 4;
#X text 883 73 1;
#X text 882 96 2;
#X text 883 155 5;
#X text 883 175 6;
#X floatatom 854 363 5 0 0 0 - - - 0;
#X listbox 47 452 23 0 0 2 Note\ Group - - 0;
#X text 74 180 F;
#X text 74 200 F#/Gb;
#X text 74 220 G;
#X text 74 240 G#/Ab;
#X text 74 260 A;
#X text 74 280 A#/Bb;
#X text 222 80 C;
#X text 222 100 C#/Db;
#X text 222 120 D;
#X text 222 140 D#/Eb;
#X text 222 160 E;
#X text 222 300 B;
#X text 222 180 F;
#X text 222 200 F#/Gb;
#X text 222 220 G;
#X text 222 240 G#/Ab;
#X text 222 260 A;
#X text 222 280 A#/Bb;
#X text 366 81 C;
#X text 366 101 C#/Db;
#X text 366 121 D;
#X text 366 141 D#/Eb;
#X text 366 161 E;
#X text 366 301 B;
#X text 366 181 F;
#X text 366 201 F#/Gb;
#X text 366 221 G;
#X text 366 241 G#/Ab;
#X text 366 261 A;
#X text 366 281 A#/Bb;
#X text 512 79 C;
#X text 512 99 C#/Db;
#X text 512 119 D;
#X text 512 139 D#/Eb;
#X text 512 159 E;
#X text 512 299 B;
#X text 512 179 F;
#X text 512 199 F#/Gb;
#X text 512 219 G;
#X text 512 239 G#/Ab;
#X text 512 259 A;
#X text 512 279 A#/Bb;
#X text 662 77 C;
#X text 662 97 C#/Db;
#X text 662 117 D;
#X text 662 137 D#/Eb;
#X text 662 157 E;
#X text 662 297 B;
#X text 662 177 F;
#X text 662 197 F#/Gb;
#X text 662 217 G;
#X text 662 237 G#/Ab;
#X text 662 257 A;
#X text 662 277 A#/Bb;
#X text 803 74 C;
#X text 803 94 C#/Db;
#X text 803 114 D;
#X text 803 134 D#/Eb;
#X text 803 154 E;
#X text 803 294 B;
#X text 803 174 F;
#X text 803 194 F#/Gb;
#X text 803 214 G;
#X text 803 234 G#/Ab;
#X text 803 254 A;
#X text 803 274 A#/Bb;
#N canvas 392 140 1116 682 calculateNote 0;
#N canvas 1288 562 450 300 getNote 0;
#X obj 62 25 inlet;
#X obj 117 25 inlet;
#X obj 117 90 * 12;
#X obj 117 160 +;
#X obj 117 205 outlet;
#X obj 117 55 + 3;
#X connect 0 0 3 1;
#X connect 1 0 5 0;
#X connect 2 0 3 0;
#X connect 3 0 4 0;
#X connect 5 0 2 0;
#X restore 16 163 pd getNote;
#X floatatom 16 208 5 0 0 0 - - - 0;
#N canvas 1288 562 450 300 getNote 0;
#X obj 62 25 inlet;
#X obj 117 25 inlet;
#X obj 117 90 * 12;
#X obj 117 160 +;
#X obj 117 205 outlet;
#X obj 117 55 + 3;
#X connect 0 0 3 1;
#X connect 1 0 5 0;
#X connect 2 0 3 0;
#X connect 3 0 4 0;
#X connect 5 0 2 0;
#X restore 164 161 pd getNote;
#X floatatom 164 208 5 0 0 0 - - - 0;
#N canvas 1288 562 450 300 getNote 0;
#X obj 62 25 inlet;
#X obj 117 25 inlet;
#X obj 117 90 * 12;
#X obj 117 160 +;
#X obj 117 205 outlet;
#X obj 117 55 + 3;
#X connect 0 0 3 1;
#X connect 1 0 5 0;
#X connect 2 0 3 0;
#X connect 3 0 4 0;
#X connect 5 0 2 0;
#X restore 309 161 pd getNote;
#X floatatom 309 209 5 0 0 0 - - - 0;
#N canvas 1288 562 450 300 getNote 0;
#X obj 62 25 inlet;
#X obj 117 25 inlet;
#X obj 117 90 * 12;
#X obj 117 160 +;
#X obj 117 205 outlet;
#X obj 117 55 + 3;
#X connect 0 0 3 1;
#X connect 1 0 5 0;
#X connect 2 0 3 0;
#X connect 3 0 4 0;
#X connect 5 0 2 0;
#X restore 453 165 pd getNote;
#X floatatom 453 209 5 0 0 0 - - - 0;
#N canvas 1288 562 450 300 getNote 0;
#X obj 62 25 inlet;
#X obj 117 25 inlet;
#X obj 117 90 * 12;
#X obj 117 160 +;
#X obj 117 205 outlet;
#X obj 117 55 + 3;
#X connect 0 0 3 1;
#X connect 1 0 5 0;
#X connect 2 0 3 0;
#X connect 3 0 4 0;
#X connect 5 0 2 0;
#X restore 604 162 pd getNote;
#X floatatom 604 207 5 0 0 0 - - - 0;
#N canvas 1288 562 450 300 getNote 0;
#X obj 62 25 inlet;
#X obj 117 25 inlet;
#X obj 117 90 * 12;
#X obj 117 160 +;
#X obj 117 205 outlet;
#X obj 117 55 + 3;
#X connect 0 0 3 1;
#X connect 1 0 5 0;
#X connect 2 0 3 0;
#X connect 3 0 4 0;
#X connect 5 0 2 0;
#X restore 744 162 pd getNote;
#X floatatom 744 207 5 0 0 0 - - - 0;
#X obj 16 238 t b f;
#X obj 164 238 t b f;
#X obj 309 240 t b f;
#X obj 453 239 t b f;
#X obj 604 236 t b f;
#X obj 744 236 t b f;
#X obj 16 94 inlet;
#X obj 69 93 inlet;
#X obj 159 95 inlet;
#X obj 212 94 inlet;
#X obj 309 96 inlet;
#X obj 362 95 inlet;
#X obj 446 94 inlet;
#X obj 499 93 inlet;
#X obj 604 97 inlet;
#X obj 657 96 inlet;
#X obj 744 99 inlet;
#X obj 797 98 inlet;
#X obj 16 386 outlet;
#X obj 16 336 pack 0 0 0 0 0 0 0, f 109;
#X connect 0 0 1 0;
#X connect 1 0 12 0;
#X connect 2 0 3 0;
#X connect 3 0 13 0;
#X connect 4 0 5 0;
#X connect 5 0 14 0;
#X connect 6 0 7 0;
#X connect 7 0 15 0;
#X connect 8 0 9 0;
#X connect 9 0 16 0;
#X connect 10 0 11 0;
#X connect 11 0 17 0;
#X connect 12 0 31 0;
#X connect 12 1 31 1;
#X connect 13 0 31 0;
#X connect 13 1 31 2;
#X connect 14 0 31 0;
#X connect 14 1 31 3;
#X connect 15 0 31 0;
#X connect 15 1 31 4;
#X connect 16 0 31 0;
#X connect 16 1 31 5;
#X connect 17 0 31 0;
#X connect 17 1 31 6;
#X connect 18 0 0 0;
#X connect 19 0 0 1;
#X connect 20 0 2 0;
#X connect 21 0 2 1;
#X connect 22 0 4 0;
#X connect 23 0 4 1;
#X connect 24 0 6 0;
#X connect 25 0 6 1;
#X connect 26 0 8 0;
#X connect 27 0 8 1;
#X connect 28 0 10 0;
#X connect 29 0 10 1;
#X connect 31 0 30 0;
#X restore 46 412 pd calculateNote;
#X f 49;
#X obj 47 562 noteout;
#X obj 117 563 receive chnl;
#X obj 47 528 makenote 1 1000;
#X obj 75 29 [ A2 ];
#X obj 223 30 [ A1 ];
#X obj 367 30 [ B2 ];
#X obj 515 31 [ B1 ];
#X obj 660 32 [ C2 ];
#X obj 808 33 [ C1 ];
#X msg 47 488 \$1 \, \$2 \, \$3 \, \$4 \, \$5 \, \$6 \, \$7 \, 10;
#X connect 1 0 2 0;
#X connect 2 0 134 0;
#X connect 9 0 16 0;
#X connect 16 0 134 1;
#X connect 17 0 18 0;
#X connect 18 0 134 2;
#X connect 19 0 26 0;
#X connect 26 0 134 3;
#X connect 27 0 28 0;
#X connect 28 0 134 4;
#X connect 29 0 36 0;
#X connect 36 0 134 5;
#X connect 37 0 38 0;
#X connect 38 0 134 6;
#X connect 39 0 46 0;
#X connect 46 0 134 7;
#X connect 47 0 48 0;
#X connect 48 0 134 8;
#X connect 49 0 56 0;
#X connect 56 0 134 9;
#X connect 57 0 58 0;
#X connect 58 0 134 10;
#X connect 59 0 66 0;
#X connect 66 0 134 11;
#X connect 67 0 144 0;
#X connect 134 0 67 0;
#X connect 136 0 135 2;
#X connect 137 0 135 0;
#X connect 137 1 135 1;
#X connect 144 0 137 0;
#X restore 215 362 pd Setup 6 Osc;
#X text 91 22 Chord Progression Setting (double click each box to adjust);
#X text 1056 13 Control button in MON2 : Voice Mode A1 - C2;
#X text 708 70 Control button in MON2 : Chord Mode AT - C2;
#X text 105 327 Frequency OSC Setting (double click the box to adjust);
#X text 102 529 Monkhum carft and creative TH ig : Monkhum.CC, f 29;
#X text 101 582     ;
#X connect 2 0 1 2;
#X connect 3 0 12 0;
#X connect 4 0 12 0;
#X connect 5 0 12 0;
#X connect 6 0 12 0;
#X connect 7 0 12 0;
#X connect 8 0 12 0;
#X connect 9 0 12 0;
#X connect 10 0 12 0;
#X connect 11 0 12 0;
#X connect 12 0 1 0;
#X connect 12 1 1 1;
#X connect 13 0 3 0;
#X connect 14 0 4 0;
#X connect 15 0 5 0;
#X connect 16 0 6 0;
#X connect 17 0 7 0;
#X connect 18 0 8 0;
#X connect 19 0 9 0;
#X connect 20 0 10 0;
#X connect 21 0 11 0;
#X connect 22 0 35 0;
#X connect 23 0 37 0;
#X connect 33 0 38 0;
#X connect 34 0 40 0;
#X connect 35 0 13 0;
#X connect 35 1 14 0;
#X connect 35 2 15 0;
#X connect 35 3 16 0;
#X connect 35 4 17 0;
#X connect 35 5 18 0;
#X connect 35 6 19 0;
#X connect 35 7 20 0;
#X connect 35 8 21 0;
#X connect 36 0 22 0;
#X connect 37 0 36 0;
#X connect 38 0 16 0;
#X connect 38 1 17 0;
#X connect 38 2 18 0;
#X connect 38 3 19 0;
#X connect 38 4 20 0;
#X connect 38 5 21 0;
#X connect 39 0 33 0;
#X connect 40 0 39 0;
#X connect 41 0 38 0;
#X connect 42 0 44 0;
#X connect 43 0 41 0;
#X connect 44 0 43 0;
#X connect 45 0 38 0;
#X connect 46 0 48 0;
#X connect 47 0 45 0;
#X connect 48 0 47 0;
#X coords 0 785 1 784 85 60 0;
